# Blender v2.78 (sub 0) OBJ File: ''
# www.blender.org
mtllib Quit.mtl
o text2_default.002
v -1.049014 -0.427824 0.334448
v -1.281814 -0.306070 0.358996
v -1.692754 -0.392827 0.328092
v -1.297182 -0.745518 0.313433
v -0.997851 -0.443412 -0.423851
v -0.927960 -0.255815 -0.237417
v -0.848936 -0.360025 0.352830
v -1.275937 -0.115953 0.408321
v -0.861704 0.105411 -0.342628
v -0.933551 0.080092 0.228530
v -1.317644 0.018957 0.316327
v -1.039380 0.632959 -0.287741
v -1.018647 0.662875 0.305628
v -1.438784 0.337257 0.438044
v -1.641428 0.873168 -0.166428
v -1.623998 0.878312 0.368531
v -1.621689 0.438835 0.295329
v -2.205786 0.625717 -0.404929
v -2.211445 0.679381 0.255812
v -1.922434 0.368537 0.281865
v -2.348703 0.101289 -0.279539
v -2.408072 0.097933 0.266619
v -1.966927 0.105475 0.207789
v -2.171059 -0.551242 -0.331939
v -2.186075 -0.514073 0.349273
v -1.877136 -0.294676 0.462098
v -1.692320 -0.778364 -0.427139
v -1.602115 -0.778441 0.373064
v -1.658514 -0.338786 0.297235
v -1.319865 -0.786590 -0.307697
v -1.197914 -0.779243 0.226495
v -0.785318 -0.561766 0.249536
v -1.144303 -0.821812 -0.157494
v -0.923483 -0.895269 -0.327257
v -1.001210 -0.918613 0.243764
v -0.769116 -0.600800 -0.283550
v -1.419823 -0.171668 -0.212278
v -1.674617 -0.051668 -0.336913
v -1.629203 -0.085264 0.455588
v -1.804013 -0.378822 0.305180
v -1.769009 -0.385935 -0.289756
v -1.762891 -0.395353 -0.410961
v -1.614160 -0.385389 -0.387354
v -1.802084 -0.292419 -0.305995
v -1.956142 0.095743 -0.451983
v -1.842489 0.345576 -0.328388
v -1.653396 0.498201 -0.299231
v -1.441445 0.368450 -0.283888
v -1.357326 0.091928 -0.358424
v -1.312778 -0.054421 -0.283777
v -0.759864 0.874127 0.408369
v -0.733089 0.812073 -0.265626
v -0.802820 -0.015221 -0.445514
v -0.770663 0.010750 0.319593
v -0.358036 -0.091418 0.381370
v -0.400857 0.883200 0.395281
v -0.745330 -0.396904 -0.251754
v -0.718415 -0.361657 0.294152
v -0.346535 -0.214067 0.292066
v -0.671911 -0.486136 -0.360095
v -0.643885 -0.528805 0.388147
v -0.268048 -0.314968 0.452578
v -0.466126 -0.725664 -0.370277
v -0.463579 -0.690352 0.277491
v -0.143669 -0.710623 -0.338724
v -0.175882 -0.686936 0.394888
v -0.125930 -0.356636 0.228887
v 0.195018 -0.655563 -0.276672
v 0.208511 -0.699316 0.289417
v 0.043546 -0.322665 0.196062
v 0.425068 -0.490701 -0.434420
v 0.346460 -0.583157 0.134266
v 0.500094 -0.334155 -0.420718
v 0.383931 -0.323915 0.321267
v 0.076543 -0.261585 0.412640
v 0.445276 0.083268 -0.407619
v 0.537674 0.056055 0.389106
v 0.070132 -0.006247 0.239548
v 0.500130 0.855970 -0.350454
v 0.489889 0.872737 0.414072
v 0.054752 0.867371 0.301715
v 0.070169 0.836137 -0.346731
v 0.131728 -0.034925 -0.276821
v 0.032023 -0.345807 -0.169622
v -0.019386 -0.313540 -0.180132
v -0.086153 -0.295885 -0.175882
v -0.276022 -0.340802 -0.377697
v -0.352502 -0.284646 -0.268063
v -0.279531 -0.000622 -0.255589
v -0.333036 0.836370 -0.318025
v 0.597672 -0.743932 0.295216
v 0.674646 -0.806468 -0.266554
v 1.082394 -0.815786 -0.444609
v 1.034907 -0.682894 0.316370
v 1.077459 0.839450 0.279390
v 0.584345 0.879610 0.324515
v 1.105092 0.822475 -0.439674
v 0.637337 0.865003 -0.251314
v 1.526061 -0.685970 0.285922
v 1.557839 -0.733955 -0.334478
v 2.008135 -0.687691 -0.361619
v 1.887809 -0.745188 0.334523
v 1.927220 0.487947 0.313981
v 1.572639 0.485969 0.423662
v 2.022918 0.498047 -0.302303
v 2.360375 0.437539 -0.471955
v 2.373409 0.505402 0.299715
v 2.426434 0.828440 0.265866
v 2.373344 0.834610 -0.316713
v 1.134287 0.837447 0.395411
v 1.162332 0.829622 -0.318134
v 1.122382 0.478639 -0.458002
v 1.125922 0.468594 0.319665
v 1.578505 0.435369 -0.260011
vt 0.0815 0.0458
vt 0.0880 0.0864
vt 0.0539 0.1429
vt 0.0208 0.0666
vt 0.8198 0.8819
vt 0.6982 0.8819
vt 0.7280 0.8522
vt 0.8213 0.8690
vt 0.1020 0.0195
vt 0.1169 0.0950
vt 0.7118 0.7948
vt 0.8035 0.8010
vt 0.1646 0.0542
vt 0.1355 0.1080
vt 0.7236 0.7147
vt 0.8183 0.7112
vt 0.2483 0.0959
vt 0.1771 0.1418
vt 0.2700 0.5402
vt 0.3641 0.5526
vt 0.3346 0.6462
vt 0.2498 0.6351
vt 0.2498 0.1964
vt 0.1835 0.1741
vt 0.3641 0.7357
vt 0.2588 0.7266
vt 0.1899 0.2736
vt 0.1575 0.2152
vt 0.9303 0.8985
vt 0.8243 0.8982
vt 0.8379 0.8144
vt 0.9250 0.8071
vt 0.0917 0.2736
vt 0.1156 0.2086
vt 0.8213 0.7138
vt 0.9303 0.7112
vt 0.0102 0.2100
vt 0.0589 0.1751
vt 0.5851 0.7348
vt 0.4760 0.7353
vt 0.4576 0.6585
vt 0.5851 0.6406
vt 0.0000 0.1102
vt 0.0639 0.1406
vt 0.4750 0.5998
vt 0.5742 0.5937
vt 0.0210 0.0503
vt 0.0750 0.0000
vt 0.4980 0.5713
vt 0.5598 0.5783
vt 0.4695 0.5368
vt 0.5610 0.5459
vt 0.0099 0.0141
vt 0.7983 0.1925
vt 0.7983 0.2824
vt 0.7494 0.2791
vt 0.7390 0.1961
vt 0.6483 0.9642
vt 0.6512 0.8807
vt 0.6905 0.8616
vt 0.6905 0.9806
vt 0.0748 0.9845
vt 0.0926 0.8941
vt 0.1330 0.8724
vt 0.1330 0.9966
vt 0.1034 0.1489
vt 0.0504 0.1602
vt 0.3031 0.8759
vt 0.3031 1.0000
vt 0.2498 0.9904
vt 0.2547 0.8973
vt 0.2092 0.8971
vt 0.2082 0.8038
vt 0.2080 0.7848
vt 0.2273 0.8994
vt 0.2318 0.7870
vt 0.2318 0.8945
vt 0.2076 0.3810
vt 0.2108 0.2736
vt 0.2402 0.2893
vt 0.2402 0.4101
vt 0.2498 0.8759
vt 0.2544 0.7554
vt 0.3151 0.7357
vt 0.3136 0.8389
vt 0.3557 0.7554
vt 0.3557 0.8514
vt 0.9721 0.3115
vt 0.9703 0.4078
vt 0.9415 0.4059
vt 0.9250 0.3143
vt 0.9062 0.4078
vt 0.8923 0.2958
vt 0.5851 0.8616
vt 0.5880 0.7486
vt 0.6327 0.7398
vt 0.6368 0.8459
vt 0.6551 0.7530
vt 0.6572 0.8616
vt 0.6733 0.7655
vt 0.6881 0.8560
vt 0.2939 0.0670
vt 0.2649 0.0387
vt 0.3318 0.0250
vt 0.3577 0.0328
vt 0.3472 0.1308
vt 0.3259 0.1416
vt 0.2749 0.0976
vt 0.3268 0.1628
vt 0.2498 0.1452
vt 0.3281 0.2094
vt 0.2550 0.2322
vt 0.3554 0.2368
vt 0.3376 0.2958
vt 0.3910 0.2210
vt 0.4355 0.2749
vt 0.4192 0.1849
vt 0.4793 0.2068
vt 0.4114 0.1255
vt 0.4793 0.1014
vt 0.3865 0.1017
vt 0.4151 0.0455
vt 0.4099 0.1055
vt 0.3012 0.0000
vt 0.4102 0.1108
vt 0.3818 0.1551
vt 0.1343 0.7396
vt 0.0267 0.7284
vt 0.0000 0.5984
vt 0.1222 0.6043
vt 0.5006 0.1686
vt 0.5518 0.1249
vt 0.6167 0.2636
vt 0.5649 0.2879
vt 0.0318 0.5393
vt 0.1190 0.5461
vt 0.4810 0.1131
vt 0.5446 0.1071
vt 0.0146 0.5253
vt 0.1343 0.5204
vt 0.4793 0.0843
vt 0.5482 0.0871
vt 0.7039 0.5368
vt 0.8234 0.5396
vt 0.8235 0.5745
vt 0.7201 0.5679
vt 0.4933 0.0492
vt 0.8150 0.6242
vt 0.6982 0.6114
vt 0.5343 0.0289
vt 0.5658 0.0717
vt 0.8013 0.6757
vt 0.7110 0.6725
vt 0.5883 0.0000
vt 0.5924 0.0644
vt 0.8235 0.7112
vt 0.7339 0.6943
vt 0.6167 0.0067
vt 0.6917 0.2958
vt 0.7837 0.3068
vt 0.7833 0.3321
vt 0.6640 0.3381
vt 0.2119 0.4607
vt 0.2076 0.4101
vt 0.2427 0.4127
vt 0.2427 0.4640
vt 0.7837 0.3967
vt 0.6573 0.3995
vt 0.0000 0.8681
vt 0.0748 0.8762
vt 0.0746 0.9166
vt 0.0256 0.9269
vt 0.7806 0.5182
vt 0.6587 0.5265
vt 0.0053 0.7403
vt 0.0748 0.7396
vt 1.0000 0.7112
vt 1.0000 0.8309
vt 0.9315 0.8294
vt 0.9303 0.7279
vt 0.9297 0.7062
vt 0.8260 0.7112
vt 0.8235 0.5747
vt 0.9062 0.5711
vt 0.8358 0.5244
vt 0.9297 0.5288
vt 0.9941 0.1248
vt 0.9941 0.2162
vt 0.9858 0.2184
vt 0.9917 0.1590
vt 0.9749 0.2184
vt 0.9647 0.1557
vt 0.9473 0.2520
vt 0.9392 0.1223
vt 0.9334 0.2357
vt 0.9276 0.1481
vt 0.4825 0.7427
vt 0.5723 0.7353
vt 0.5688 0.7804
vt 0.4673 0.7612
vt 0.5723 0.9106
vt 0.4576 0.9125
vt 0.5912 0.9737
vt 0.5851 0.8616
vt 0.6483 0.8725
vt 0.6483 0.9782
vt 0.2601 0.3011
vt 0.3243 0.2986
vt 0.3322 0.4253
vt 0.2498 0.4336
vt 0.3205 0.4694
vt 0.2576 0.4864
vt 0.3334 0.4812
vt 0.2700 0.5033
vt 0.3028 0.5402
vt 0.3625 0.4681
vt 0.3541 0.5367
vt 0.3731 0.4709
vt 0.4079 0.5262
vt 0.4457 0.5053
vt 0.3813 0.4755
vt 0.4576 0.4808
vt 0.3980 0.4309
vt 0.4490 0.4163
vt 0.3889 0.2991
vt 0.4576 0.2958
vt 0.9297 0.6456
vt 0.9360 0.5568
vt 0.9988 0.5244
vt 0.9988 0.6443
vt 0.3730 0.7853
vt 0.3641 0.5470
vt 0.4430 0.5402
vt 0.4430 0.7942
vt 0.6167 0.0177
vt 0.7390 0.0000
vt 0.7320 0.2558
vt 0.6169 0.2558
vt 0.4429 0.8043
vt 0.4429 0.9170
vt 0.3691 0.8846
vt 0.3641 0.7942
vt 0.1343 0.5204
vt 0.2264 0.5234
vt 0.2264 0.7848
vt 0.1366 0.7744
vt 0.8613 0.2571
vt 0.8516 0.0000
vt 0.9276 0.0105
vt 0.9276 0.2624
vt 0.8996 0.5179
vt 0.8923 0.4208
vt 0.9624 0.4078
vt 0.9585 0.5179
vt 0.1228 0.2736
vt 0.1281 0.4666
vt 0.0714 0.4657
vt 0.0650 0.2827
vt 0.7390 0.0000
vt 0.8516 0.0045
vt 0.8516 0.1900
vt 0.7524 0.1925
vt 0.9276 0.1223
vt 0.9438 0.0261
vt 0.9986 0.0000
vt 0.9986 0.1210
vt 0.1994 0.4698
vt 0.2076 0.5204
vt 0.9913 0.8309
vt 0.9913 0.9519
vt 0.9303 0.9221
vt 0.9389 0.8319
vt 0.0010 0.5204
vt 0.6965 0.7398
vt 0.6030 0.7398
vt 0.5851 0.5514
vt 0.6982 0.5368
vt 0.0748 0.8724
vt 0.0775 0.7608
vt 0.1340 0.7396
vt 0.1340 0.8613
vt 0.0000 0.4629
vt 0.1367 0.9064
vt 0.1343 0.7848
vt 0.2080 0.8148
vt 0.2080 0.9219
vt 0.7837 0.2958
vt 0.8923 0.3105
vt 0.8923 0.4939
vt 0.7937 0.4803
vt 0.5907 0.2958
vt 0.5857 0.4777
vt 0.5143 0.4858
vt 0.5185 0.3018
vt 0.4576 0.5368
vt 0.4595 0.4712
vt 0.6511 0.5368
vt 0.6573 0.4788
vn 0.4508 -0.1773 0.8749
vn -0.1575 0.1571 0.9749
vn 0.0544 -0.6085 0.7917
vn 0.0328 -0.6125 0.7898
vn 0.4712 0.0123 -0.8819
vn 0.6409 -0.2489 -0.7262
vn 0.7192 -0.1980 0.6660
vn -0.6219 0.0822 0.7787
vn 0.7148 0.0228 -0.6990
vn 0.7959 0.1573 0.5846
vn -0.5782 -0.1518 0.8016
vn 0.4516 0.5476 -0.7044
vn 0.5773 0.4142 0.7036
vn -0.4621 -0.4822 0.7443
vn 0.0648 0.7502 -0.6580
vn -0.0629 0.7017 0.7097
vn -0.0919 -0.6756 0.7315
vn -0.4271 0.5248 -0.7364
vn -0.5468 0.4051 0.7327
vn 0.4523 -0.5060 0.7344
vn -0.7195 -0.0383 -0.6934
vn -0.7430 0.0638 0.6663
vn 0.6428 0.0706 0.7627
vn -0.5944 -0.4052 -0.6946
vn -0.5339 -0.4026 0.7435
vn 0.4531 0.5211 0.7233
vn -0.0586 -0.6596 -0.7494
vn -0.0487 -0.6754 0.7358
vn 0.4104 0.0186 0.9117
vn 0.1180 -0.6683 -0.7345
vn -0.1845 -0.7413 0.6454
vn 0.6208 0.0039 0.7840
vn -0.3511 -0.7590 -0.5483
vn -0.0697 -0.7976 -0.5991
vn 0.1889 -0.7813 0.5949
vn 0.6090 0.0621 -0.7907
vn -0.0968 0.5763 -0.8115
vn -0.1862 0.8285 -0.5281
vn -0.3362 0.6316 0.6986
vn -0.6464 -0.5431 0.5358
vn -0.6957 -0.2824 -0.6605
vn 0.1964 -0.4529 -0.8696
vn 0.4281 0.1548 -0.8903
vn 0.3831 0.5335 -0.7541
vn 0.6628 -0.0401 -0.7478
vn 0.5705 -0.3828 -0.7266
vn 0.0516 -0.5642 -0.8240
vn -0.5674 -0.3158 -0.7605
vn -0.6862 -0.2797 -0.6715
vn -0.7453 0.0338 -0.6659
vn -0.6396 0.5634 0.5230
vn -0.5066 0.6216 -0.5975
vn -0.6517 -0.1113 -0.7503
vn -0.7182 -0.1271 0.6841
vn 0.6483 -0.1393 0.7485
vn 0.5214 0.5945 0.6121
vn -0.7808 -0.0756 -0.6202
vn -0.7706 -0.1103 0.6277
vn 0.5622 0.3594 0.7448
vn -0.7479 -0.1908 -0.6358
vn -0.6623 -0.4135 0.6248
vn 0.2310 0.5286 0.8168
vn -0.1342 -0.6565 -0.7423
vn -0.1181 -0.7597 0.6394
vn 0.2359 -0.6434 -0.7283
vn 0.1988 -0.6579 0.7264
vn 0.1251 0.7453 0.6549
vn 0.0856 -0.6400 -0.7636
vn 0.5794 -0.4476 0.6812
vn 0.0801 0.6518 0.7541
vn 0.3482 -0.3845 -0.8549
vn 0.6559 -0.5377 0.5298
vn 0.5986 -0.0112 -0.8010
vn 0.6290 -0.3864 0.6746
vn -0.6732 0.2582 0.6929
vn 0.5828 -0.0943 -0.8071
vn 0.6537 -0.0025 0.7568
vn -0.7819 0.0749 0.6189
vn 0.4798 0.5952 -0.6446
vn 0.4794 0.6423 0.5980
vn -0.7218 0.4986 0.4801
vn -0.6402 0.5057 -0.5782
vn -0.7942 0.0015 -0.6076
vn -0.6364 0.5060 -0.5823
vn -0.2594 0.7079 -0.6570
vn 0.1505 0.8008 -0.5796
vn 0.2226 0.6708 -0.7074
vn 0.6637 0.3916 -0.6372
vn 0.7942 -0.1021 -0.5990
vn 0.5930 0.6113 -0.5240
vn -0.5209 -0.5900 0.6168
vn -0.6968 -0.5366 -0.4759
vn 0.4953 -0.7064 -0.5057
vn 0.5788 -0.5211 0.6273
vn 0.6134 0.5431 0.5734
vn -0.5597 0.6218 0.5478
vn 0.4642 0.6561 -0.5950
vn -0.6686 0.5081 -0.5429
vn -0.5557 -0.6068 0.5683
vn -0.6233 -0.5165 -0.5871
vn 0.5687 -0.6200 -0.5405
vn 0.5558 -0.5686 0.6064
vn 0.3405 -0.2507 0.9062
vn -0.3113 -0.3374 0.8884
vn 0.1673 -0.2574 -0.9517
vn 0.4550 -0.5748 -0.6801
vn 0.5743 -0.5770 0.5808
vn 0.4640 0.4416 0.7679
vn 0.2623 0.5039 -0.8229
vn -0.4434 0.4054 0.7994
vn -0.2609 0.5409 -0.7996
vn -0.5119 -0.5094 -0.6917
vn -0.6454 -0.5774 0.5000
vn -0.2430 -0.2344 -0.9413
usemtl default.004
s 1
f 1/1/1 2/2/2 3/3/3 4/4/4
f 1/5/1 5/6/5 6/7/6 7/8/7
f 7/9/7 8/10/8 2/2/2 1/1/1
f 7/8/7 6/7/6 9/11/9 10/12/10
f 10/13/10 11/14/11 8/10/8 7/9/7
f 10/12/10 9/11/9 12/15/12 13/16/13
f 13/17/13 14/18/14 11/14/11 10/13/10
f 13/19/13 12/20/12 15/21/15 16/22/16
f 16/23/16 17/24/17 14/18/14 13/17/13
f 16/22/16 15/21/15 18/25/18 19/26/19
f 19/27/19 20/28/20 17/24/17 16/23/16
f 19/29/19 18/30/18 21/31/21 22/32/22
f 22/33/22 23/34/23 20/28/20 19/27/19
f 22/32/22 21/31/21 24/35/24 25/36/25
f 25/37/25 26/38/26 23/34/23 22/33/22
f 25/39/25 24/40/24 27/41/27 28/42/28
f 28/43/28 29/44/29 26/38/26 25/37/25
f 28/42/28 27/41/27 30/45/30 4/46/4
f 4/4/4 31/47/31 32/48/32 1/1/1
f 4/4/4 3/3/3 29/44/29 28/43/28
f 4/46/4 30/45/30 33/49/33 31/50/31
f 31/50/31 33/49/33 34/51/34 35/52/35
f 35/53/35 32/48/32 31/47/31
f 35/54/35 34/55/34 36/56/36 32/57/32
f 32/58/32 36/59/36 5/60/5 1/61/1
f 2/62/2 37/63/37 38/64/38 39/65/39
f 39/66/39 40/67/40 3/3/3 2/2/2
f 39/68/39 38/69/38 41/70/41 40/71/40
f 40/72/40 41/73/41 42/74/42 3/75/3
f 3/75/3 42/74/42 43/76/43 29/77/29
f 29/78/29 43/79/43 44/80/44 26/81/26
f 26/82/26 44/83/44 45/84/45 23/85/23
f 23/85/23 45/84/45 46/86/46 20/87/20
f 20/88/20 46/89/46 47/90/47 17/91/17
f 17/91/17 47/90/47 48/92/48 14/93/14
f 14/94/14 48/95/48 49/96/49 11/97/11
f 11/97/11 49/96/49 50/98/50 8/99/8
f 8/99/8 50/98/50 37/100/37 2/101/2
f 5/102/5 36/103/36 33/104/33 30/105/30
f 5/102/5 37/106/37 50/107/50 6/108/6
f 6/108/6 50/107/50 49/109/49 9/110/9
f 9/110/9 49/109/49 48/111/48 12/112/12
f 12/112/12 48/111/48 47/113/47 15/114/15
f 15/114/15 47/113/47 46/115/46 18/116/18
f 18/116/18 46/115/46 45/117/45 21/118/21
f 21/118/21 45/117/45 44/119/44 24/120/24
f 24/120/24 44/119/44 43/121/43 27/122/27
f 27/122/27 43/121/43 42/123/42 30/105/30
f 30/105/30 42/123/42 37/106/37 5/102/5
f 33/104/33 36/103/36 34/124/34
f 37/106/37 42/123/42 41/125/41 38/126/38
f 51/127/51 52/128/52 53/129/53 54/130/54
f 54/131/54 55/132/55 56/133/56 51/134/51
f 54/130/54 53/129/53 57/135/57 58/136/58
f 58/137/58 59/138/59 55/132/55 54/131/54
f 58/136/58 57/135/57 60/139/60 61/140/61
f 61/141/61 62/142/62 59/138/59 58/137/58
f 61/143/61 60/144/60 63/145/63 64/146/64
f 64/147/64 62/142/62 61/141/61
f 64/146/64 63/145/63 65/148/65 66/149/66
f 66/150/66 67/151/67 62/142/62 64/147/64
f 66/149/66 65/148/65 68/152/68 69/153/69
f 69/154/69 70/155/70 67/151/67 66/150/66
f 69/153/69 68/152/68 71/156/71 72/157/72
f 72/158/72 70/155/70 69/154/69
f 72/159/72 71/160/71 73/161/73 74/162/74
f 74/163/74 75/164/75 70/165/70 72/166/72
f 74/162/74 73/161/73 76/167/76 77/168/77
f 77/169/77 78/170/78 75/171/75 74/172/74
f 77/168/77 76/167/76 79/173/79 80/174/80
f 80/175/80 81/176/81 78/170/78 77/169/77
f 80/177/80 79/178/79 82/179/82 81/180/81
f 81/181/81 82/182/82 83/183/83 78/184/78
f 78/184/78 83/183/83 84/185/84 75/186/75
f 75/187/75 84/188/84 85/189/85 70/190/70
f 70/190/70 85/189/85 86/191/86 67/192/67
f 67/192/67 86/191/86 87/193/87 62/194/62
f 62/194/62 87/193/87 88/195/88 59/196/59
f 59/197/59 88/198/88 89/199/89 55/200/55
f 55/200/55 89/199/89 90/201/90 56/202/56
f 56/203/56 90/204/90 52/205/52 51/206/51
f 52/207/52 90/208/90 89/209/89 53/210/53
f 53/210/53 89/209/89 88/211/88 57/212/57
f 57/212/57 88/211/88 87/213/87 60/214/60
f 60/214/60 87/213/87 63/215/63
f 63/215/63 87/213/87 86/216/86 65/217/65
f 65/217/65 86/216/86 85/218/85 68/219/68
f 68/219/68 85/218/85 71/220/71
f 71/220/71 85/218/85 84/221/84 73/222/73
f 73/222/73 84/221/84 83/223/83 76/224/76
f 76/224/76 83/223/83 82/225/82 79/226/79
f 91/227/91 92/228/92 93/229/93 94/230/94
f 94/231/94 95/232/95 96/233/96 91/234/91
f 94/235/94 93/236/93 97/237/97 95/238/95
f 95/239/95 97/240/97 98/241/98 96/242/96
f 96/243/96 98/244/98 92/245/92 91/246/91
f 92/247/92 98/248/98 97/249/97 93/250/93
f 99/251/99 100/252/100 101/253/101 102/254/102
f 102/255/102 103/256/103 104/257/104 99/258/99
f 102/259/102 101/260/101 105/261/105 103/262/103
f 103/263/103 105/264/105 106/265/106 107/266/107
f 107/267/107 108/268/108 103/256/103
f 107/269/107 106/270/106 109/271/109 108/272/108
f 108/268/108 110/273/110 104/257/104 103/256/103
f 108/274/108 109/275/109 111/276/111 110/277/110
f 110/278/110 111/279/111 112/280/112 113/281/113
f 113/282/113 104/257/104 110/273/110
f 113/283/113 112/284/112 114/285/114 104/286/104
f 104/287/104 114/288/114 100/289/100 99/290/99
f 100/291/100 114/292/114 105/293/105 101/294/101
f 105/293/105 109/295/109 106/296/106
f 105/293/105 114/292/114 111/297/111 109/295/109
f 111/297/111 114/292/114 112/298/112
