# Blender v2.78 (sub 0) OBJ File: ''
# www.blender.org
mtllib Coin.mtl
o Cylinder2_default
v 1.000000 -0.000000 0.232092
v 1.000000 0.000000 -0.232092
v 0.623490 0.781832 -0.232092
v 0.623490 0.781831 0.232092
v 0.786000 -0.000000 0.232092
v 0.490063 -0.614520 0.232092
v 0.623490 -0.781832 0.232092
v 0.623490 -0.781831 -0.232092
v -0.174901 -0.766293 0.232092
v -0.222521 -0.974928 0.232092
v -0.222521 -0.974928 -0.232092
v -0.708162 -0.341033 0.232092
v -0.900969 -0.433884 0.232092
v -0.900969 -0.433884 -0.232092
v -0.708162 0.341033 0.232092
v -0.900969 0.433884 0.232092
v -0.900969 0.433884 -0.232092
v -0.174901 0.766293 0.232092
v -0.222521 0.974928 0.232092
v -0.222521 0.974928 -0.232092
v 0.490063 0.614519 0.232092
v 0.786000 0.000000 -0.232092
v 0.490063 0.614520 -0.232092
v 0.490063 -0.614519 -0.232092
v -0.174901 -0.766293 -0.232092
v -0.708162 -0.341033 -0.232092
v -0.708162 0.341033 -0.232092
v -0.174901 0.766293 -0.232092
v 0.317561 -0.398209 0.122080
v -0.113336 -0.496558 0.122080
v 0.509328 -0.000000 0.122080
v 0.317561 0.398209 0.122080
v -0.113336 0.496558 0.122080
v -0.458889 0.220989 0.122080
v -0.458889 -0.220989 0.122080
v 0.509328 0.000000 -0.122080
v 0.317561 0.398209 -0.122080
v 0.317561 -0.398209 -0.122080
v -0.113336 -0.496558 -0.122080
v -0.458889 -0.220989 -0.122080
v -0.458889 0.220989 -0.122080
v -0.113336 0.496558 -0.122080
vt 0.2442 1.0000
vt 0.1221 1.0000
vt 0.1221 0.8613
vt 0.2442 0.8613
vt 0.0990 0.4505
vt 0.1341 0.4076
vt 0.3090 0.4465
vt 0.3216 0.5000
vt 0.3663 0.7225
vt 0.2442 0.7225
vt 0.2442 0.5000
vt 0.3663 0.5000
vt 0.4493 0.3375
vt 0.5000 0.3613
vt 0.0000 0.8613
vt 0.1221 0.8613
vt 0.1221 1.0000
vt 0.0000 1.0000
vt 0.4493 0.1625
vt 0.5000 0.1387
vt 0.0000 0.6387
vt 0.1221 0.6387
vt 0.3090 0.0535
vt 0.3216 0.0000
vt 0.0000 0.5000
vt 0.1221 0.5000
vt 0.1341 0.0924
vt 0.0990 0.0495
vt 0.2442 0.6387
vt 0.1221 0.6387
vt 0.2442 0.5000
vt 0.0563 0.2500
vt 0.0000 0.2500
vt 1.0000 0.1387
vt 0.9493 0.1625
vt 0.8090 0.0535
vt 0.8216 0.0000
vt 1.0000 0.3613
vt 0.9493 0.3375
vt 0.8216 0.5000
vt 0.8090 0.4465
vt 0.5990 0.4505
vt 0.6341 0.4076
vt 0.5000 0.2500
vt 0.5563 0.2500
vt 0.5990 0.0495
vt 0.6341 0.0924
vt 0.2928 0.3773
vt 0.3837 0.3067
vt 0.1795 0.3521
vt 0.1291 0.2500
vt 0.1795 0.1479
vt 0.2928 0.1227
vt 0.3837 0.1933
vt 0.8837 0.1933
vt 0.7928 0.1227
vt 0.8837 0.3067
vt 0.7928 0.3773
vt 0.6795 0.3521
vt 0.6291 0.2500
vt 0.6795 0.1479
vn 0.6694 -0.0001 0.7429
vn 0.6694 -0.0000 -0.7429
vn 0.4173 0.5234 -0.7429
vn 0.4173 0.5233 0.7429
vn -0.1866 -0.0000 0.9824
vn -0.1164 0.1459 0.9824
vn 0.4173 -0.5234 0.7429
vn 0.4173 -0.5233 -0.7429
vn 0.0415 0.1820 0.9824
vn -0.1490 -0.6526 0.7429
vn -0.1490 -0.6526 -0.7429
vn 0.1681 0.0810 0.9824
vn -0.6031 -0.2904 0.7429
vn -0.6031 -0.2904 -0.7429
vn 0.1681 -0.0810 0.9824
vn -0.6031 0.2904 0.7429
vn -0.6031 0.2904 -0.7429
vn 0.0415 -0.1819 0.9824
vn -0.1489 0.6526 0.7429
vn -0.1489 0.6526 -0.7429
vn -0.1164 -0.1459 0.9824
vn -0.1866 0.0000 -0.9824
vn -0.1164 -0.1459 -0.9824
vn -0.1164 0.1459 -0.9824
vn 0.0415 0.1819 -0.9824
vn 0.1681 0.0810 -0.9824
vn 0.1681 -0.0810 -0.9824
vn 0.0415 -0.1819 -0.9824
vn -0.1553 0.1947 0.9685
vn 0.0554 0.2428 0.9685
vn -0.2490 0.0000 0.9685
vn -0.1553 -0.1947 0.9685
vn 0.0554 -0.2428 0.9685
vn 0.2243 -0.1080 0.9685
vn 0.2243 0.1080 0.9685
vn -0.2490 -0.0000 -0.9685
vn -0.1553 -0.1947 -0.9685
vn -0.1553 0.1947 -0.9685
vn 0.0554 0.2428 -0.9685
vn 0.2243 0.1080 -0.9685
vn 0.2243 -0.1080 -0.9685
vn 0.0554 -0.2428 -0.9685
usemtl default
s 1
f 1/1/1 2/2/2 3/3/3 4/4/4
f 1/5/1 5/6/5 6/7/6 7/8/7
f 7/9/7 8/10/8 2/11/2 1/12/1
f 7/8/7 6/7/6 9/13/9 10/14/10
f 10/15/10 11/16/11 8/17/8 7/18/7
f 10/14/10 9/13/9 12/19/12 13/20/13
f 13/21/13 14/22/14 11/16/11 10/15/10
f 13/20/13 12/19/12 15/23/15 16/24/16
f 16/25/16 17/26/17 14/22/14 13/21/13
f 16/24/16 15/23/15 18/27/18 19/28/19
f 19/29/19 20/30/20 17/26/17 16/31/16
f 19/28/19 18/27/18 21/32/21 4/33/4
f 4/4/4 3/3/3 20/30/20 19/29/19
f 4/33/4 21/32/21 5/6/5 1/5/1
f 2/34/2 22/35/22 23/36/23 3/37/3
f 8/38/8 24/39/24 22/35/22 2/34/2
f 11/40/11 25/41/25 24/39/24 8/38/8
f 14/42/14 26/43/26 25/41/25 11/40/11
f 17/44/17 27/45/27 26/43/26 14/42/14
f 20/46/20 28/47/28 27/45/27 17/44/17
f 3/37/3 23/36/23 28/47/28 20/46/20
f 6/7/6 29/48/29 30/49/30 9/13/9
f 5/6/5 31/50/31 29/48/29 6/7/6
f 21/32/21 32/51/32 31/50/31 5/6/5
f 18/27/18 33/52/33 32/51/32 21/32/21
f 15/23/15 34/53/34 33/52/33 18/27/18
f 12/19/12 35/54/35 34/53/34 15/23/15
f 9/13/9 30/49/30 35/54/35 12/19/12
f 22/35/22 36/55/36 37/56/37 23/36/23
f 24/39/24 38/57/38 36/55/36 22/35/22
f 25/41/25 39/58/39 38/57/38 24/39/24
f 26/43/26 40/59/40 39/58/39 25/41/25
f 27/45/27 41/60/41 40/59/40 26/43/26
f 28/47/28 42/61/42 41/60/41 27/45/27
f 23/36/23 37/56/37 42/61/42 28/47/28
f 31/50/31 32/51/32 33/52/33 34/53/34 35/54/35 30/49/30 29/48/29
f 38/57/38 39/58/39 40/59/40 41/60/41 42/61/42 37/56/37 36/55/36
