# Exported from Wings 3D 1.0.2
mtllib flower.mtl
o Cube1_sep4
#103 vertices, 85 faces
v -0.16125182 8.8443849e-2 -0.12782872
v -4.6012608e-2 0.23780703 0.21732236
v -8.1492852e-2 0.63430729 0.22514371
v -0.22203580 0.76771950 -0.11442935
v -0.25975293 0.43323810 0.31881973
v -0.52742711 0.42325212 4.6054380e-2
v 8.7500279e-2 0.49447144 0.15471759
v 6.7479560e-2 0.52815576 -0.23508184
v -0.16218860 0.38617204 3.9468179e-2
v -9.8220440e-2 0.37542623 0.21734803
v -8.3786941e-2 -0.19703600 0.12401674
v -0.14065078 -0.26859710 -6.9558260e-2
v 0.19526474 -3.3713826e-2 8.5240483e-2
v 0.13129658 -2.2968013e-2 -9.2639372e-2
v -0.29025551 -9.2096680e-2 0.19633422
v -0.35422366 -8.1350868e-2 1.8454366e-2
v -0.16305660 0.40680535 -4.0812736e-2
v -0.14305370 0.48678080 0.12963506
v 0.32275188 0.12703690 0.19579860
v 0.36529041 8.9462950e-3 1.9444088e-2
v 0.37388444 0.44157036 8.8252559e-2
v 0.35388155 0.36159490 -8.2195238e-2
v 9.4330863e-2 5.4004329e-2 0.24031391
v 7.4327970e-2 -2.5971124e-2 6.9866117e-2
v -0.16177029 0.43739522 -2.8085654e-2
v -6.7487427e-2 0.40320419 0.13250811
v -0.59791507 0.45488187 0.40264160
v -0.75520199 0.49566388 0.26434699
v -0.48440191 0.15619099 0.32263525
v -0.57868478 0.19038202 0.16204149
v -0.45149884 0.65616047 0.34332812
v -0.54578170 0.69035149 0.18273436
v -0.13676999 0.43076899 -0.11362883
v -0.11301299 0.35532144 5.8394171e-2
v -1.5102176e-2 0.91118182 0.25110992
v -2.2388750e-2 1.05544307 8.0722659e-2
v -0.31016808 0.78670756 0.27291091
v -0.33392508 0.86215511 0.10088790
v 0.17165994 0.76632842 0.13540914
v 0.14790294 0.84177597 -3.6613862e-2
v -7.1275199e-2 0.42989665 -0.14832467
v -7.0867441e-2 0.44039434 4.0721014e-2
v 0.44123459 0.69485332 -2.0595234e-3
v 0.51952499 0.72367000 -0.22399258
v 0.19080547 0.88957845 1.3473009e-2
v 0.19039772 0.87908077 -0.17557268
v 0.43133667 0.45075838 -1.9114921e-2
v 0.43092891 0.44026069 -0.20816061
v -0.25268440 0.37773110 1.6768069e-2
v -0.14312176 0.36014800 0.17018092
v -0.50611548 -6.7284165e-2 0.32570229
v -0.66616406 -0.11431455 0.18409687
v -0.22993027 -0.15312071 0.17120490
v -0.33949291 -0.13553761 1.7792044e-2
v -0.56166718 0.16306577 0.37481485
v -0.67122982 0.18064887 0.22140200
v -0.24623728 0.53069912 1.9874406e-2
v -0.17164034 0.49700477 0.19060410
v -0.51226357 0.92220232 0.37659173
v -0.63818482 1.02621317 0.22460894
v -0.62324873 0.63061778 0.41236741
v -0.69784567 0.66431213 0.24163772
v -0.29218029 0.98109829 0.27439138
v -0.36677722 1.01479264 0.10366169
v 0.35469782 -0.16312942 -0.51903157
v 0.15584155 -0.22887992 -0.52724679
v 0.23550281 -1.24645996 -9.4892383e-2
v 0.44916386 -1.25273002 -8.1069367e-2
v 0.16939431 -0.30237322 -0.26864796
v 0.36825057 -0.23662271 -0.26043273
v 0.24159135 -1.27694880 -0.29897817
v 0.45525240 -1.28321885 -0.28515515
v -4.0266664e-2 0.51536946 -6.5142449e-2
v -0.22313881 0.41437987 -8.2268873e-2
v -0.17946436 0.29493518 0.15497321
v 3.4077856e-3 0.39592477 0.17209963
v 0.18953067 -0.58433053 0.20074685
v 0.32211128 -0.75085607 0.42438425
v 0.44386250 -1.29867529 -0.11666361
v 0.34495736 -1.17444724 -0.28349710
v 0.67351524 -0.71240450 0.24481417
v 0.54093462 -0.54587896 2.1176778e-2
v 0.24879301 -1.33076720 -1.5704931e-2
v 0.14988787 -1.20653915 -0.18253843
v 0.70421851 -0.41207557 0.64725621
v 6.9078280e-2 -0.69194922 -0.49423496
v -0.18945168 -0.85847475 -0.46678383
v 0.25180587 -1.40629397 -0.13085540
v 0.44466922 -1.28206592 -0.15133394
v -0.17246280 -0.82002318 -7.2523091e-2
v 8.6067159e-2 -0.65349765 -9.9974225e-2
v 0.24121428 -1.43838588 -0.35024678
v 0.43407763 -1.31415783 -0.37072533
v -0.45614216 -0.50809551 -0.38014595
v 0.76619468 -0.62912092 -0.45013597
v 0.82104223 -0.79564646 -0.70426793
v 0.36388019 -1.34346568 -0.39032685
v 0.32296391 -1.21923763 -0.20074441
v 0.44127412 -0.75719489 -0.81153552
v 0.38642657 -0.59066935 -0.55740356
v 0.57556313 -1.37555759 -0.33171717
v 0.53464685 -1.25132954 -0.14213474
v 0.76617082 -0.45000478 -1.06441615
vt 0.0000000e+0 0.41081500
vt 0.0000000e+0 0.54581321
vt 0.0000000e+0 0.81213400
vt 7.2802380e-3 0.23164409
vt 3.7183536e-2 0.70716322
vt 4.0079643e-2 7.7588169e-4
vt 4.0252915e-2 0.82395794
vt 5.1900371e-2 0.96680704
vt 5.5309666e-2 0.41591096
vt 6.1603021e-2 0.93649885
vt 6.5896269e-2 0.22786284
vt 7.0259509e-2 0.57509655
vt 8.4660856e-2 4.2598715e-3
vt 8.8030218e-2 0.80026695
vt 9.8717286e-2 0.42327382
vt 0.10302765 0.71956313
vt 0.10529166 0.61506045
vt 0.11580459 0.23411300
vt 0.12524501 0.42632489
vt 0.13130979 0.0000000e+0
vt 0.13260892 0.85226288
vt 0.15533613 0.42426546
vt 0.15874936 0.66955182
vt 0.16674388 0.85832502
vt 0.16674388 0.85929914
vt 0.16784013 0.45780244
vt 0.16880523 0.24587071
vt 0.17588674 5.6549037e-3
vt 0.19679476 0.84745251
vt 0.19898642 0.42632489
vt 0.20978730 0.71956313
vt 0.21063324 0.24550591
vt 0.21448121 0.49182897
vt 0.22142867 1.3471636e-2
vt 0.22142867 0.34878740
vt 0.22142867 0.12615961
vt 0.25581612 0.53043899
vt 0.25588388 0.71956313
vt 0.26188646 0.28456477
vt 0.27223230 0.75874051
vt 0.28246339 0.16816635
vt 0.30414645 0.54066930
vt 0.30414645 0.56270837
vt 0.30856093 0.84874836
vt 0.31511185 0.40721275
vt 0.32184682 0.77923417
vt 0.32308777 0.29805204
vt 0.32612417 0.87894739
vt 0.34477538 0.20388528
vt 0.36340505 0.0000000e+0
vt 0.36535963 0.36213115
vt 0.36535963 0.36613687
vt 0.37833241 0.55717624
vt 0.37874734 0.70426567
vt 0.38382542 0.23229664
vt 0.38501577 0.30027887
vt 0.39241882 0.85797944
vt 0.39241882 0.74199354
vt 0.39633277 0.71956313
vt 0.40063192 0.59961626
vt 0.40553353 4.2407766e-2
vt 0.41461262 0.29805204
vt 0.41856435 0.52493094
vt 0.42892237 0.83696866
vt 0.43243915 0.57687097
vt 0.43795599 0.39607558
vt 0.44449106 0.78633915
vt 0.44899778 8.0737384e-2
vt 0.45127204 0.42632489
vt 0.48833164 0.12512738
vt 0.49540191 0.29805204
vt 0.50882475 0.60665588
vt 0.51309560 0.78932493
vt 0.52577618 0.89936406
vt 0.52656200 0.16194694
vt 0.52656200 0.18050634
vt 0.52656200 0.41989069
vt 0.52656200 0.62648367
vt 0.54087704 0.76838343
vt 0.54121817 0.71956313
vt 0.54121817 0.92739256
vt 0.55170025 8.3266727e-17
vt 0.56228745 0.41825758
vt 0.56514315 0.74108235
vt 0.59448558 0.87060561
vt 0.59725068 0.17402782
vt 0.60494553 0.62723973
vt 0.60886307 4.7404375e-3
vt 0.61358174 0.31708737
vt 0.61390399 0.84134549
vt 0.61464880 0.46044989
vt 0.61641003 0.28463101
vt 0.62026167 0.54038635
vt 0.63339482 0.71383648
vt 0.63925116 0.67202994
vt 0.65187436 0.57572613
vt 0.65223729 0.54038635
vt 0.65925030 0.42449596
vt 0.66451967 5.5032979e-3
vt 0.67429260 0.28463101
vt 0.67574173 0.82070972
vt 0.67587825 0.16928946
vt 0.67723855 0.76827796
vt 0.70105681 0.39611063
vt 0.70105681 0.52149153
vt 0.70105681 0.41842855
vt 0.70105681 0.42881741
vt 0.70556077 0.73742263
vt 0.71179875 0.46372679
vt 0.72154905 5.4555745e-3
vt 0.72286195 0.46372679
vt 0.72298724 0.28463101
vt 0.72918077 0.15598276
vt 0.74406284 0.39611063
vt 0.74603511 0.52986619
vt 0.74742642 0.77781367
vt 0.74742642 0.76897747
vt 0.74742642 0.86921460
vt 0.74742642 0.87122796
vt 0.74875637 0.82618712
vt 0.74886472 0.63273710
vt 0.75018630 0.82618712
vt 0.75667940 0.71956313
vt 0.75677705 0.47210146
vt 0.76586798 0.44140887
vt 0.77354139 0.0000000e+0
vt 0.78089684 0.63744940
vt 0.79409754 0.87401188
vt 0.79529730 0.77645988
vt 0.79542749 0.82897104
vt 0.79768139 0.77645988
vt 0.80044127 0.82483333
vt 0.80271481 0.29275311
vt 0.80454175 0.35762783
vt 0.80455028 0.72704554
vt 0.80471724 0.16102706
vt 0.80471724 0.60728837
vt 0.80471724 0.17039140
vt 0.80471724 0.25751194
vt 0.80471724 0.36139465
vt 0.80471724 0.54420560
vt 0.80471724 0.69416160
vt 0.80736434 0.68738486
vt 0.83425993 0.80054435
vt 0.84202042 1.2522199e-2
vt 0.84277711 0.59677474
vt 0.85892798 0.16102706
vt 0.86485197 3.9107668e-2
vt 0.86554392 0.30921639
vt 0.86733946 0.10446662
vt 0.86853357 0.45410823
vt 0.86876044 0.59677474
vt 0.87038946 0.45410823
vt 0.87360385 0.30921639
vt 0.89905500 0.80424119
vt 0.91322273 0.55856650
vt 0.91381489 0.35259818
vt 0.91392797 0.72549317
vt 0.91973182 0.11845920
vt 0.92077830 0.69416160
vt 0.94273798 0.15316837
vt 0.94808868 0.23324376
vt 0.97341374 1.7567546e-2
vt 1.00000000 0.0000000e+0
vn -5.7485433e-3 -0.92440958 -0.38135795
vn 0.42897358 -0.61509155 0.66154671
vn 0.25566006 0.69512923 0.67188785
vn -0.20076313 0.94682163 -0.25144176
vn -0.28643724 -1.7689828e-2 0.95793569
vn -0.99760592 -5.2978047e-2 4.4449423e-2
vn 0.90650334 0.14318343 0.39717780
vn 0.74039967 0.18031914 -0.64752863
vn -0.24928292 0.76715831 -0.59103820
vn 8.5072861e-2 0.60414581 0.79231966
vn 0.16459793 -0.82159248 0.54579604
vn -7.0445648e-2 -0.89533686 -0.43978326
vn 0.90405661 -0.19431097 0.38069002
vn 0.66136977 -2.2388512e-2 -0.74972581
vn -0.54413582 -0.31397110 0.77803493
vn -0.95791772 -0.20394474 -0.20199055
vn -0.64517452 0.14363973 -0.75041153
vn -0.53700772 0.59332654 0.59965518
vn 0.64108568 -0.26569717 0.72000984
vn 0.68638422 -0.69175813 -0.22438224
vn 0.65399901 0.67242612 0.34659545
vn 0.54806051 0.34053107 -0.76398185
vn -0.25023693 -0.45877435 0.85258875
vn -0.42374542 -0.90033445 -9.9185187e-2
vn 0.27823401 4.2570332e-2 -0.95956949
vn 0.95402006 -5.2251372e-2 0.29515339
vn -0.36558200 4.2759708e-2 0.92979643
vn -0.98625110 0.13258573 9.8639706e-2
vn 3.5517994e-2 -0.81852000 0.57337900
vn -0.47718917 -0.74814587 -0.46105126
vn 0.22488243 0.70905393 0.66833406
vn -0.25319758 0.93286529 -0.25622906
vn -0.24778366 -0.38799147 -0.88773075
vn 9.5278418e-2 -0.91684268 0.38771320
vn 0.30805508 0.47085582 0.82667821
vn 9.1842464e-2 0.99434422 -5.3334150e-2
vn -0.60156329 9.4810956e-3 0.79876887
vn -0.88041561 0.40346278 -0.24917090
vn 0.89275383 -0.13830717 0.42879100
vn 0.79035070 0.24090701 -0.56330240
vn -0.66619680 -0.33998574 -0.66377068
vn -0.54327001 -0.37897998 0.74915411
vn 0.73681406 0.29644928 0.60763712
vn 0.82035956 0.39935667 -0.40929750
vn -0.14192270 0.75897415 0.63546533
vn -0.28027921 0.80321486 -0.52563243
vn 0.53574437 -0.59100583 0.60306724
vn 0.52599154 -0.71403082 -0.46205290
vn 4.0416913e-2 0.59349770 -0.80382022
vn 0.73145363 0.51739214 0.44416321
vn -0.15265676 -0.58000507 0.80018125
vn -0.75580494 -0.65439376 -2.2971758e-2
vn 0.67830431 -0.68419233 0.26792559
vn 0.15290805 -0.61525320 -0.77335802
vn -0.25909976 0.31503013 0.91302975
vn -0.87394925 0.48279461 5.5875506e-2
vn 0.11717142 -0.43244126 -0.89401645
vn 0.75647458 -0.53279884 0.37930412
vn -0.12469351 0.51923921 0.84548339
vn -0.67604798 0.73658039 2.0210208e-2
vn -0.37228315 -0.43097688 0.82198795
vn -0.89236400 -0.39274289 -0.22234997
vn 0.68601619 0.57108100 0.45083066
vn 0.33543184 0.76892709 -0.54427622
vn 0.67898199 0.31341005 -0.66389578
vn -0.71398813 -9.0417487e-2 -0.69429506
vn -0.61001573 -0.48866435 0.62376915
vn 0.54943712 -0.45799368 0.69882804
vn -0.67456147 -0.32498762 0.66283472
vn 0.71627280 7.8575208e-2 0.69338244
vn -0.53516657 -0.70851113 -0.46000949
vn 0.59930876 -0.63815271 -0.48331163
vn 0.15152271 0.97207482 -0.17919657
vn -0.85427966 0.44571163 -0.26748348
vn -0.68555567 -0.11971490 0.71810985
vn 0.34960992 0.42860648 0.83310827
vn -0.80672612 0.58860284 5.2341778e-2
vn -0.29375952 -0.44433994 0.84632580
vn 0.61178005 -0.76639112 -0.19588215
vn 0.14440411 -0.19051561 -0.97100528
vn 0.91449163 -0.37696256 0.14698399
vn 0.41445666 0.65020831 -0.63675336
vn -0.33954308 -0.89015462 0.30386715
vn -0.82198378 -0.28957186 -0.49039861
vn 0.33009730 0.71731685 0.61358969
vn 0.36850055 0.49578628 -0.78638624
vn -0.62500605 -0.45824615 -0.63196353
vn -7.6569158e-2 -0.76639112 0.63779449
vn 0.82276041 -0.19051561 0.53550828
vn -0.63748305 -0.24753858 0.72961634
vn 0.37460261 0.72154238 0.58227955
vn -0.13494172 -0.89015462 -0.43521889
vn 0.78806418 -0.28957186 -0.54323382
vn -0.67420935 0.72450113 -0.14331736
vn 0.63320026 0.54232306 0.55221655
vn 0.79329811 -0.45667433 -0.40264954
vn -0.58178172 -0.76639112 -0.27235028
vn -0.76612341 -0.19051561 0.61380675
vn -0.53631603 -0.31480338 -0.78311171
vn -0.70239403 0.69029044 0.17361374
vn 0.45558727 -0.89015462 8.0612506e-3
vn 0.26927581 -0.28957186 0.91849805
vn 0.27071497 0.72213754 -0.63657739
g Cube1_sep4_default
usemtl default
f 1/147/1 6/162/6 4/154/4 8/139/8
f 1/69/1 8/72/8 7/65/7 2/63/2
f 2/63/2 5/53/5 6/42/6 1/69/1
f 3/60/3 7/65/7 8/72/8 4/54/4
f 4/54/4 6/42/6 5/53/5 3/60/3
f 7/65/7 3/60/3 5/53/5 2/63/2
f 9/153/9 14/140/14 12/149/12 16/157/16
f 9/8/9 16/3/16 15/7/15 10/10/10
f 10/10/10 13/21/13 14/24/14 9/8/9
f 11/14/11 15/7/15 16/3/16 12/16/12
f 12/16/12 14/24/14 13/21/13 11/14/11
f 15/7/15 11/14/11 13/21/13 10/10/10
f 17/160/17 22/143/22 20/137/20 24/152/24
f 17/25/17 24/38/24 23/40/23 18/29/18
f 18/29/18 21/44/21 22/48/22 17/25/17
f 19/46/19 23/40/23 24/38/24 20/58/20
f 20/58/20 22/48/22 21/44/21 19/46/19
f 23/40/23 19/46/19 21/44/21 18/29/18
f 25/35/25 30/47/30 28/52/28 32/45/32
f 25/127/25 32/94/32 31/95/31 26/121/26
f 26/121/26 29/96/29 30/97/30 25/127/25
f 27/87/27 31/95/31 32/94/32 28/78/28
f 28/78/28 30/97/30 29/96/29 27/87/27
f 31/95/31 27/87/27 29/96/29 26/121/26
f 33/151/33 38/156/38 36/146/36 40/141/40
f 33/92/33 40/107/40 39/98/39 34/89/34
f 34/89/34 37/83/37 38/77/38 33/92/33
f 35/91/35 39/98/39 40/107/40 36/93/36
f 36/93/36 38/77/38 37/83/37 35/91/35
f 39/98/39 35/91/35 37/83/37 34/89/34
f 41/71/41 46/66/46 44/51/44 48/56/48
f 41/80/41 48/108/48 47/103/47 42/84/42
f 42/84/42 45/90/45 46/85/46 41/80/41
f 43/101/43 47/103/47 48/108/48 44/118/44
f 44/118/44 46/85/46 45/90/45 43/101/43
f 47/103/47 43/101/43 45/90/45 42/84/42
f 49/104/49 54/112/54 52/133/52 56/134/56
f 49/81/49 56/57/56 55/64/55 50/74/50
f 50/74/50 53/73/53 54/79/54 49/81/49
f 51/67/51 55/64/55 56/57/56 52/59/52
f 52/59/52 54/79/54 53/73/53 51/67/51
f 55/64/55 51/67/51 53/73/53 50/74/50
f 57/142/57 62/158/62 60/155/60 64/144/64
f 57/164/57 64/161/64 63/159/63 58/163/58
f 58/163/58 61/148/61 62/145/62 57/164/57
f 59/150/59 63/159/63 64/161/64 60/136/60
f 60/136/60 62/145/62 61/148/61 59/150/59
f 63/159/63 59/150/59 61/148/61 58/163/58
f 65/27/65 70/18/70 68/20/68 72/28/72
f 65/27/65 72/28/72 71/34/71 66/32/66
f 65/27/65 73/22/73 76/15/76 70/18/70
f 66/32/66 74/30/74 73/22/73 65/27/65
f 67/130/67 71/128/71 72/119/72 68/120/68
f 68/20/68 70/18/70 69/11/69 67/13/67
f 69/11/69 75/9/75 74/1/74 66/4/66
f 70/18/70 76/15/76 75/9/75 69/11/69
f 71/6/71 67/13/67 69/11/69 66/4/66
f 74/105/74 75/109/75 76/124/76 73/115/73
f 77/138/77 82/113/82 80/110/80 84/126/84
f 77/76/77 84/82/84 83/88/83 78/86/78
f 77/138/77 85/100/85 82/113/82
f 78/86/78 85/100/85 77/76/77
f 79/106/79 83/114/83 84/125/84 80/111/80
f 80/110/80 82/113/82 81/102/81 79/99/79
f 81/102/81 85/100/85 78/86/78
f 82/113/82 85/100/85 81/102/81
f 83/88/83 79/99/79 81/102/81 78/86/78
f 86/62/86 91/55/91 89/70/89 93/75/93
f 86/36/86 93/50/93 92/61/92 87/41/87
f 86/62/86 94/39/94 91/55/91
f 87/41/87 94/39/94 86/36/86
f 88/131/88 92/132/92 93/122/93 89/116/89
f 89/70/89 91/55/91 90/49/90 88/68/88
f 90/49/90 94/39/94 87/41/87
f 91/55/91 94/39/94 90/49/90
f 92/61/92 88/68/88 90/49/90 87/41/87
f 95/12/95 100/2/100 98/19/98 102/26/102
f 95/12/95 102/26/102 101/33/101 96/17/96
f 95/12/95 103/5/103 100/2/100
f 96/17/96 103/5/103 95/12/95
f 97/129/97 101/117/101 102/123/102 98/135/98
f 98/43/98 100/31/100 99/23/99 97/37/97
f 99/23/99 103/5/103 96/17/96
f 100/31/100 103/5/103 99/23/99
f 101/33/101 97/37/97 99/23/99 96/17/96
