# Exported from Wings 3D 1.0.2
mtllib Sun.mtl
o Cube1
#64 vertices, 50 faces
v -1.57213240 0.88263382 -6.8304774e-2
v -1.50973982 0.88278808 0.23406784
v -0.81363381 0.81563121 8.2022058e-2
v -0.87602639 0.81547695 -0.22035056
v -1.13305196 1.21129794 0.15626450
v -1.19544454 1.21114368 -0.14610811
v -1.02139266 0.60908228 0.13412873
v -1.08378524 0.60892803 -0.16824389
v -0.99487805 -0.22313427 -0.15344652
v -0.99487805 -0.22313427 0.15529618
v -0.85411377 0.62145039 -0.15344652
v -0.85411377 0.62145039 0.15529618
v 0.39347711 -0.60933243 -0.15685324
v 0.39347711 -0.60933243 0.15188946
v 0.58892276 0.15524889 0.14702718
v 0.58892276 0.15524889 -0.16171552
v 5.4228064e-2 0.78627536 0.15538558
v 5.4228064e-2 0.78627536 -0.15335712
v -0.28922884 -0.73265040 0.15597041
v -0.28922884 -0.73265040 -0.15277229
v -0.52031403 -8.9575393e-2 0.50898402
v -0.44774601 0.24607235 0.52198556
v -8.5096748e-2 0.33319880 0.50461504
v 0.14546263 6.8978500e-2 0.49658376
v 5.2080654e-2 -0.24783595 0.50886522
v -0.23216996 -0.32448048 0.48934357
v -0.23202007 -0.32340821 -0.48977821
v 5.2508011e-2 -0.24828846 -0.51150212
v 0.14809227 6.9490068e-2 -0.50185087
v -8.5320750e-2 0.33247036 -0.50535152
v -0.44726671 0.24562961 -0.52277176
v -0.51963266 -8.9383631e-2 -0.50976797
v 0.70042850 1.40766825 -0.14094721
v 0.61782928 1.40783950 0.15654128
v 0.51358510 0.58960401 0.12293874
v 0.59618432 0.58943276 -0.17454974
v 0.89493048 0.91454590 0.23730882
v 0.97752971 0.91437465 -6.0179659e-2
v 0.31370916 0.80511180 7.6599653e-2
v 0.39630839 0.80494054 -0.22088883
v -1.04556302 -1.18770360 -0.14875552
v -0.98317044 -1.18754934 0.15361710
v -0.95086550 -0.55159312 0.13818355
v -1.01325808 -0.55174738 -0.16418907
v -1.28321936 -0.93585371 0.21549308
v -1.34561193 -0.93600797 -8.6879539e-2
v -0.71718876 -0.73163740 9.9189401e-2
v -0.77958134 -0.73179165 -0.20318322
v 1.50513096 0.24341932 -7.4716714e-2
v 1.42253173 0.24359057 0.22277177
v 0.91432854 -0.11011315 7.3288297e-2
v 0.99692776 -0.11028440 -0.22420018
v 1.40549806 -0.15251433 0.21836308
v 1.48809729 -0.15268558 -7.9125397e-2
v 0.91394340 0.18730927 8.2291710e-2
v 0.99654262 0.18713802 -0.21519677
v 0.96569343 -1.07241297 -5.8795917e-2
v 0.88309421 -1.07224172 0.23869257
v 0.29490182 -0.89854935 6.6696080e-2
v 0.37750105 -0.89872060 -0.23079240
v 0.58155811 -1.31578650 0.15520248
v 0.66415733 -1.31595775 -0.14228600
v 0.51192012 -0.70717494 0.13612373
v 0.59451934 -0.70734619 -0.16136475
vt 0.0000000e+0 0.26792078
vt 0.0000000e+0 0.57209910
vt 0.0000000e+0 0.89203537
vt 3.2530659e-2 0.76728540
vt 4.7082596e-2 0.93165939
vt 4.8991172e-2 2.2995837e-2
vt 6.2095962e-2 0.80578529
vt 6.6504320e-2 0.25304789
vt 0.10389707 8.2533093e-2
vt 0.12103278 0.60807893
vt 0.12676154 0.85620394
vt 0.13493829 0.67157653
vt 0.15461874 0.45113867
vt 0.15884416 0.45113867
vt 0.17208124 0.23629971
vt 0.17625977 0.56120539
vt 0.17739494 0.38982831
vt 0.18941505 0.18013547
vt 0.20389986 0.68869967
vt 0.21278515 0.28581081
vt 0.23075334 0.57709864
vt 0.24019375 0.80578529
vt 0.24034214 0.17009654
vt 0.24884149 0.63813788
vt 0.26009225 6.7818437e-2
vt 0.27738659 0.27606253
vt 0.28262169 0.0000000e+0
vt 0.29031003 0.21789164
vt 0.32149668 0.48301163
vt 0.36598387 0.66247610
vt 0.37296493 0.37455284
vt 0.40173295 0.19531352
vt 0.42195993 0.42901261
vt 0.46420458 0.68040830
vt 0.46420458 0.17542865
vt 0.46420458 0.17554164
vt 0.46420458 0.54405329
vt 0.50667343 0.63587567
vt 0.51221009 0.33984167
vt 0.51919080 0.52618243
vt 0.52355962 0.17371550
vt 0.52903575 0.80515893
vt 0.53967970 0.41385057
vt 0.55892629 0.55626869
vt 0.57272330 0.0000000e+0
vt 0.58212686 0.27615747
vt 0.58374549 8.5388041e-2
vt 0.58560013 0.63587567
vt 0.58887903 0.70323293
vt 0.59342822 0.33984167
vt 0.59356996 0.45882757
vt 0.62037901 0.12479365
vt 0.64665814 0.44427439
vt 0.68136803 0.31469987
vt 0.68136803 0.69977959
vt 0.68136803 0.10868088
vt 0.68136803 0.11387138
vt 0.68136803 0.64325242
vt 0.68417007 0.47303310
vt 0.72406402 0.57685250
vt 0.72768045 0.50675248
vt 0.75962799 0.30434248
vt 0.76084499 0.76779617
vt 0.76591825 9.6069892e-2
vt 0.78449514 0.64325242
vt 0.79382362 0.0000000e+0
vt 0.80559139 6.0182423e-2
vt 0.81303784 0.20678540
vt 0.81544456 0.26177956
vt 0.82620027 0.52579932
vt 0.82640594 0.47595907
vt 0.82873240 0.68602846
vt 0.82873240 0.69511405
vt 0.85189454 0.15125545
vt 0.85673147 0.20678540
vt 0.86461010 0.34925348
vt 0.86983045 0.40683472
vt 0.87350340 0.55904484
vt 0.87405664 0.40683472
vt 0.87405664 0.41522585
vt 0.87426833 0.47676274
vt 0.89224656 0.64325242
vt 0.89904823 0.77480514
vt 0.90276558 0.31718710
vt 0.92882217 9.1952253e-2
vt 0.94813431 0.73769192
vt 0.98000273 0.40683472
vt 0.98334728 0.48876451
vt 0.98630735 0.30884818
vt 1.00000000 7.7687633e-2
vn -0.86741704 -7.8698099e-2 -0.49131893
vn -0.59388690 -7.4707954e-2 0.80107245
vn 0.92333107 -4.3579045e-2 0.38152404
vn 0.69133222 -4.8272667e-2 -0.72092268
vn 0.19207499 0.81196660 0.55119637
vn -5.5688944e-2 0.81089422 -0.58253696
vn 0.22314420 -0.84068189 0.49341729
vn -2.5339185e-3 -0.84338814 -0.53729882
vn -0.81000739 -0.34297750 -0.47566213
vn -0.80939123 -0.34232653 0.47717751
vn -0.61365915 0.60948521 -0.50194643
vn -0.61310104 0.60886951 0.50337365
vn 0.59433836 -0.64378261 -0.48198119
vn 0.59923577 -0.64017050 0.48072677
vn 0.86696120 0.20057117 0.45623401
vn 0.86447665 0.20193056 -0.46033051
vn 0.30299565 0.82899817 0.47005922
vn 0.29853213 0.83100261 -0.46937536
vn -0.20078094 -0.87523815 0.44005135
vn -0.20316528 -0.87557056 -0.43829222
vn -0.36074387 -0.16940365 0.91715117
vn -0.25878054 0.25874225 0.93063692
vn 0.14976007 0.37392441 0.91528818
vn 0.41671376 8.8215498e-2 0.90474730
vn 0.27800957 -0.29543576 0.91401772
vn -9.2962630e-2 -0.43283156 0.89666872
vn -9.8235112e-2 -0.43482554 -0.89514056
vn 0.27008758 -0.29930048 -0.91513492
vn 0.40808409 8.8943501e-2 -0.90860136
vn 0.14306381 0.37784505 -0.91474907
vn -0.26178747 0.25975245 -0.92951384
vn -0.36386869 -0.17035607 -0.91573926
vn 0.17406668 0.69715985 -0.69546311
vn -0.20759641 0.69329722 0.69010340
vn -0.19913749 -0.82549086 0.52811845
vn 9.9683539e-2 -0.82373371 -0.55814511
vn 0.64521707 -0.15119076 0.74889003
vn 0.93943412 -0.14528466 -0.31041248
vn -0.95243978 -0.12178906 0.27933114
vn -0.67352778 -0.11561878 -0.73006344
vn 1.4163835e-2 -0.78471918 -0.61968960
vn 0.25513904 -0.77854948 0.57338014
vn 3.1777553e-2 0.82483494 0.56447985
vn -0.19058871 0.81984117 -0.53994111
vn -0.67555772 -5.5431097e-2 0.73522048
vn -0.90886207 -7.1869409e-2 -0.41085828
vn 0.90927837 0.16622330 0.38155297
vn 0.68823079 0.15039130 -0.70973293
vn 0.68610856 0.58152363 -0.43713305
vn 0.35913704 0.57478250 0.73528611
vn -0.73752854 -0.56070199 0.37638401
vn -0.43584161 -0.55434062 -0.70904765
vn 0.35507392 -0.61447181 0.70451892
vn 0.67840161 -0.60311704 -0.41954867
vn -0.74717479 0.55155488 0.37083291
vn -0.43985024 0.56333878 -0.69941489
vn 0.92850135 -3.7056930e-2 -0.36947535
vn 0.59656250 -4.0133973e-2 0.80156250
vn -0.94235200 0.10063216 0.31913301
vn -0.63564366 0.10431072 -0.76490288
vn -0.27544460 -0.80230677 0.52956030
vn 5.3022501e-2 -0.80340081 -0.59307314
vn -0.13273903 0.83030301 0.54127373
vn 0.18036259 0.83027547 -0.52736324
g Cube1_sun
usemtl sun
f 1/85/1 6/74/6 4/64/4 8/67/8
f 1/85/1 8/67/8 7/66/7 2/90/2
f 2/90/2 5/75/5 6/74/6 1/85/1
f 3/56/3 7/66/7 8/67/8 4/64/4
f 4/64/4 6/74/6 5/75/5 3/56/3
f 7/65/7 3/72/3 5/63/5 2/55/2
f 9/32/9 20/25/20 19/27/19 10/36/10
f 9/32/9 32/28/32 27/23/27 20/25/20
f 10/36/10 12/33/12 11/31/11 9/32/9
f 10/2/10 21/10/21 22/12/22 12/4/12
f 11/31/11 31/26/31 32/28/32 9/32/9
f 12/33/12 17/13/17 18/17/18 11/31/11
f 12/4/12 22/12/22 23/19/23 17/22/17
f 13/9/13 16/8/16 15/1/15 14/6/14
f 13/9/13 28/18/28 29/15/29 16/8/16
f 14/6/14 19/27/19 20/25/20 13/9/13
f 14/29/14 25/21/25 26/16/26 19/14/19
f 15/30/15 24/24/24 25/21/25 14/29/14
f 16/8/16 18/17/18 17/13/17 15/1/15
f 16/8/16 29/15/29 30/20/30 18/17/18
f 17/22/17 23/19/23 24/24/24 15/30/15
f 18/17/18 30/20/30 31/26/31 11/31/11
f 19/14/19 26/16/26 21/10/21 10/2/10
f 20/25/20 27/23/27 28/18/28 13/9/13
f 21/10/21 26/16/26 25/21/25 24/24/24 23/19/23 22/12/22
f 27/23/27 32/28/32 31/26/31 30/20/30 29/15/29 28/18/28
f 33/46/33 38/41/38 36/47/36 40/52/40
f 33/46/33 40/52/40 39/57/39 34/50/34
f 34/50/34 37/35/37 38/41/38 33/46/33
f 35/45/35 39/57/39 40/52/40 36/47/36
f 36/47/36 38/41/38 37/35/37 35/45/35
f 39/34/39 35/38/35 37/49/37 34/42/34
f 41/43/41 46/51/46 44/44/44 48/40/48
f 41/43/41 48/40/48 47/37/47 42/39/42
f 42/39/42 45/53/45 46/51/46 41/43/41
f 43/48/43 47/37/47 48/40/48 44/44/44
f 44/44/44 46/51/46 45/53/45 43/48/43
f 47/86/47 43/83/43 45/73/45 42/82/42
f 49/60/49 54/61/54 52/71/52 56/70/56
f 49/60/49 56/70/56 55/78/55 50/58/50
f 50/58/50 53/59/53 54/61/54 49/60/49
f 51/79/51 55/78/55 56/70/56 52/71/52
f 52/71/52 54/61/54 53/59/53 51/79/51
f 55/81/55 51/80/51 53/87/53 50/88/50
f 57/62/57 62/69/62 60/84/60 64/76/64
f 57/62/57 64/76/64 63/77/63 58/54/58
f 58/54/58 61/68/61 62/69/62 57/62/57
f 59/89/59 63/77/63 64/76/64 60/84/60
f 60/84/60 62/69/62 61/68/61 59/89/59
f 63/5/63 59/3/59 61/7/61 58/11/58
