# Blender v2.78 (sub 0) OBJ File: 'PlayButton.blend'
# www.blender.org
mtllib PlayButton.mtl
o text101_default
v -2.367857 -0.704470 0.145366
v -2.385993 -0.649821 -0.303400
v -2.038579 -0.667535 -0.322424
v -2.070379 -0.651796 0.158414
v -2.024276 -0.111345 0.130576
v -2.038665 -0.080493 -0.325147
v -2.033484 0.243654 0.146150
v -2.402321 0.899589 0.142826
v -1.725500 -0.110730 -0.294339
v -1.734134 -0.093983 0.139292
v -1.180245 0.411125 0.153593
v -1.627211 0.391634 0.169117
v -1.773502 0.241575 0.121194
v -1.678100 0.952861 0.120532
v -1.825958 0.586022 0.102559
v -1.666835 0.941260 -0.282796
v -2.400071 0.946103 -0.296284
v -2.031803 0.564287 0.100443
v -2.030460 0.234272 -0.340654
v -2.051321 0.587444 -0.319736
v -1.850648 0.591685 -0.317432
v -1.770872 0.221661 -0.297559
v -1.139560 0.412576 -0.292739
v -1.644230 0.383615 -0.297727
v 1.525634 -0.657045 0.114571
v 1.583316 -0.668295 -0.303637
v 1.931663 -0.693053 -0.329940
v 1.935423 -0.684575 0.093758
v 1.877449 -0.034716 0.115445
v 1.552013 -0.025959 0.137861
v 1.923520 0.010525 -0.325760
v 2.562012 0.941929 -0.291405
v 2.526735 0.861035 0.101112
v 2.129863 0.945706 0.106327
v 1.748783 0.336726 0.102414
v 2.132222 0.899718 -0.297677
v 1.370865 0.959355 0.159035
v 0.938966 0.934486 0.137406
v 1.320482 0.949364 -0.308243
v 0.949906 0.928799 -0.323131
v 1.546128 -0.020210 -0.315945
v 1.715152 0.292342 -0.302427
v -0.260454 -0.679976 0.102158
v 0.407924 0.095579 0.118063
v 0.510169 0.394277 0.167221
v 0.396574 0.945978 0.174658
v -0.251310 -0.703114 -0.318123
v 0.090979 -0.686481 -0.323065
v 0.137158 -0.686103 0.146953
v 0.270349 -0.225736 0.084566
v 0.300039 -0.248575 -0.346284
v 0.807424 -0.253263 -0.317216
v 0.726772 -0.229920 0.170480
v 0.637622 0.051091 0.105177
v 0.958297 -0.686667 -0.335319
v 0.956890 -0.691910 0.158572
v 1.326067 -0.663466 0.131922
v 1.356310 -0.673075 -0.321839
v 0.644339 0.926079 -0.316238
v 0.694222 0.921484 0.128554
v 0.338913 0.941632 -0.312981
v 0.642249 0.086621 -0.299458
v 0.382264 0.070222 -0.324950
v 0.501468 0.426357 -0.318384
v -1.161114 -0.653368 0.151368
v -1.187786 -0.671723 -0.309146
v -0.144189 -0.631347 -0.324367
v -0.143185 -0.679323 0.129360
v -0.136612 -0.304910 0.136562
v -0.812007 -0.343499 0.126622
v -0.120383 -0.352163 -0.326094
v -0.843715 -0.323121 -0.288852
v -0.823350 0.922564 0.119523
v -1.174408 0.931140 0.112074
v -0.805632 0.888747 -0.277620
v -1.189975 0.930335 -0.291255
vt 0.9749 0.1618
vt 0.9749 0.2412
vt 0.9134 0.2422
vt 0.9223 0.1575
vt 0.7277 0.8574
vt 0.7173 0.7620
vt 0.7804 0.8655
vt 0.7823 0.8272
vt 0.8674 0.8261
vt 0.8674 0.9270
vt 0.7868 0.9220
vt 0.7177 0.6992
vt 0.7804 0.5819
vt 0.0924 0.9951
vt 0.0883 0.9145
vt 0.1437 0.9189
vt 0.1437 0.9956
vt 0.6660 0.7600
vt 0.5663 0.6730
vt 0.6454 0.6747
vt 0.6716 0.7005
vt 0.6520 0.5752
vt 0.6795 0.6394
vt 0.7937 0.6983
vt 0.8650 0.6964
vt 0.8670 0.8261
vt 0.7894 0.8261
vt 0.7159 0.6424
vt 0.0017 0.5862
vt 0.0794 0.5785
vt 0.0794 0.8497
vt 0.0000 0.8578
vt 0.9272 0.9139
vt 0.9272 1.0000
vt 0.8674 0.9952
vt 0.8718 0.9210
vt 0.0890 0.8997
vt 0.0883 0.8253
vt 0.1238 0.8270
vt 0.1254 0.9014
vt 0.2388 0.9031
vt 0.2387 0.8291
vt 0.2847 0.8218
vt 0.2847 0.9078
vt 0.7884 0.2931
vt 0.7261 0.3931
vt 0.7270 0.2893
vt 0.7884 0.5752
vt 0.7241 0.4486
vt 0.6782 0.4462
vt 0.6707 0.3874
vt 0.2387 0.8218
vt 0.2387 0.9360
vt 0.1597 0.9339
vt 0.1620 0.8242
vt 0.8674 0.6012
vt 0.7884 0.6081
vt 0.6587 0.5733
vt 0.6918 0.5116
vt 0.7273 0.5112
vt 0.1597 0.8319
vt 0.1597 0.9145
vt 0.6556 0.4746
vt 0.5663 0.4790
vt 0.2748 0.6611
vt 0.2412 0.6619
vt 0.2425 0.5879
vt 0.2748 0.5785
vt 0.8747 0.5986
vt 0.8855 0.5247
vt 0.9471 0.5207
vt 0.9471 0.5956
vt 0.4665 0.2893
vt 0.4541 0.4039
vt 0.3964 0.4044
vt 0.3938 0.2929
vt 0.4701 0.5802
vt 0.5450 0.5780
vt 0.5450 0.6986
vt 0.4668 0.6895
vt 0.5407 0.8852
vt 0.4712 0.8703
vt 0.5663 0.5642
vt 0.4958 0.5780
vt 0.4303 0.4693
vt 0.9150 0.0053
vt 0.9844 0.0000
vt 0.9849 0.0758
vt 0.9134 0.0758
vt 0.3613 0.5780
vt 0.2851 0.5724
vt 0.3682 0.9477
vt 0.3791 0.8653
vt 0.4446 0.8642
vt 0.4446 0.9457
vt 0.2412 0.8218
vt 0.1597 0.8218
vt 0.1604 0.6884
vt 0.2407 0.6872
vt 0.1621 0.5797
vt 0.2360 0.5785
vt 0.1715 0.0041
vt 0.1787 0.1186
vt 0.1120 0.1244
vt 0.1099 0.0000
vt 0.1492 0.1741
vt 0.0760 0.2819
vt 0.0000 0.2898
vt 0.8748 0.4125
vt 0.8747 0.2893
vt 0.9462 0.2989
vt 0.9462 0.4207
vt 0.9573 0.4207
vt 0.9573 0.5173
vt 0.8747 0.5207
vt 0.8857 0.4294
vt 0.2851 0.2857
vt 0.2196 0.2898
vt 0.2803 0.5778
vt 0.1633 0.4399
vt 0.1459 0.3871
vt 0.1668 0.2898
vt 0.7748 0.8744
vt 0.7721 0.9487
vt 0.7115 0.9487
vt 0.7046 0.8655
vt 0.2103 0.5785
vt 0.1870 0.4967
vt 0.2851 0.8642
vt 0.3682 0.8664
vt 0.3682 0.9504
vt 0.2920 0.9493
vt 0.0019 0.8650
vt 0.0779 0.8578
vt 0.0874 0.9471
vt 0.0000 0.9471
vt 0.1068 0.4972
vt 0.1226 0.4474
vt 0.6367 0.9541
vt 0.6378 0.8679
vt 0.7046 0.8655
vt 0.7046 0.9528
vt 0.0654 0.5785
vt 0.0000 0.5729
vt 0.6340 0.8655
vt 0.6367 0.9528
vt 0.5663 0.9528
vt 0.5689 0.8724
vt 0.1597 0.8248
vt 0.0794 0.8253
vt 0.0811 0.5799
vt 0.1597 0.5785
vt 0.1139 0.2936
vt 0.9467 0.3742
vt 0.9462 0.2951
vt 1.0000 0.2893
vt 1.0000 0.3761
vt 0.7884 0.2893
vt 0.8747 0.2931
vt 0.8747 0.6012
vt 0.8003 0.5974
vt 0.2434 0.9863
vt 0.2387 0.9149
vt 0.2843 0.9078
vt 0.2843 0.9863
vt 0.2851 0.2893
vt 0.3990 0.1542
vt 0.3837 0.2104
vt 0.3457 0.2872
vt 0.4451 0.1518
vt 0.4735 0.2123
vt 0.5696 0.2878
vt 0.4991 0.2893
vt 0.4210 0.0915
vt 0.4474 0.0035
vt 0.3934 0.0000
vt 0.5330 0.9711
vt 0.4668 0.9711
vt 0.4705 0.8852
vt 0.5263 0.8929
vt 0.9802 0.9999
vt 0.9292 0.9935
vt 0.9272 0.9217
vt 0.9802 0.9139
vt 0.8674 0.6047
vt 0.9489 0.6012
vt 0.9489 0.7858
vt 0.8686 0.7847
vt 0.2868 0.8642
vt 0.2851 0.7981
vt 0.4046 0.8039
vt 0.4668 0.8582
vt 0.9134 0.1575
vt 0.9200 0.0771
vt 0.9690 0.0758
vt 0.9781 0.1575
vt 0.8674 0.7930
vt 0.9490 0.7858
vt 0.9490 0.9139
vt 0.8753 0.9120
vt 0.4048 0.5800
vt 0.4668 0.5780
vt 0.9134 0.2172
vt 0.8400 0.2146
vt 0.8431 0.0048
vt 0.9134 0.0000
vt 0.9074 0.2180
vt 0.9082 0.2883
vt 0.8400 0.2883
vt 0.8452 0.2172
vt 0.8362 0.2727
vt 0.7649 0.2727
vt 0.7585 0.0000
vt 0.8400 0.0034
vt 0.6975 0.0616
vt 0.5696 0.0562
vt 0.5739 0.0068
vt 0.7585 0.2832
vt 0.6905 0.2759
vn -0.5518 -0.6336 0.5422
vn -0.5950 -0.5586 -0.5779
vn 0.5782 -0.5703 -0.5834
vn 0.5445 -0.5485 0.6345
vn 0.3323 -0.3254 0.8853
vn 0.2687 -0.2961 -0.9166
vn 0.3289 0.3039 0.8941
vn -0.5823 0.5322 0.6145
vn 0.3115 -0.7442 -0.5909
vn 0.2683 -0.7150 0.6456
vn 0.7833 -0.0263 0.6211
vn -0.4180 -0.0016 0.9084
vn -0.2768 0.5627 0.7789
vn 0.2799 0.7252 0.6290
vn -0.2520 -0.5572 0.7912
vn 0.3150 0.7431 -0.5904
vn -0.5798 0.6031 -0.5477
vn 0.4711 -0.2743 0.8383
vn 0.2921 0.2826 -0.9137
vn 0.3233 -0.2150 -0.9215
vn -0.1723 -0.5167 -0.8386
vn -0.1715 0.5345 -0.8275
vn 0.8375 -0.0245 -0.5458
vn -0.4454 -0.0119 -0.8953
vn -0.6125 -0.5438 0.5736
vn -0.5725 -0.5882 -0.5712
vn 0.5655 -0.5950 -0.5710
vn 0.5868 -0.5828 0.5620
vn 0.5955 -0.1432 0.7905
vn -0.5790 -0.1850 0.7940
vn 0.5857 -0.1733 -0.7918
vn 0.7425 0.4396 -0.5053
vn 0.7524 0.2912 0.5908
vn -0.3558 0.7200 0.5958
vn 0.0231 0.3532 0.9352
vn -0.3687 0.6965 -0.6156
vn 0.4105 0.6929 0.5928
vn -0.7306 0.4020 0.5518
vn 0.3538 0.6999 -0.6204
vn -0.7260 0.3782 -0.5743
vn -0.6104 -0.1655 -0.7746
vn 0.0231 0.3099 -0.9505
vn -0.6691 -0.4674 0.5778
vn 0.3195 0.1809 0.9301
vn 0.0269 -0.2203 0.9750
vn -0.3596 0.6822 0.6366
vn -0.7013 -0.4951 -0.5128
vn 0.4130 -0.6644 -0.6229
vn 0.4744 -0.6187 0.6261
vn 0.2942 -0.4358 0.8506
vn 0.2716 -0.4111 -0.8701
vn -0.2920 -0.3897 -0.8734
vn -0.2251 -0.3687 0.9019
vn -0.2822 0.2051 0.9372
vn -0.4077 -0.6550 -0.6362
vn -0.3782 -0.6589 0.6502
vn 0.7422 -0.4137 0.5272
vn 0.7076 -0.4214 -0.5672
vn 0.4328 0.6617 -0.6122
vn 0.5188 0.6434 0.5629
vn -0.4663 0.6635 -0.5850
vn -0.2654 0.2102 -0.9409
vn 0.2794 0.2036 -0.9383
vn -0.0049 -0.1787 -0.9839
vn -0.5645 -0.5749 0.5922
vn -0.5770 -0.5736 -0.5813
vn 0.5781 -0.5475 -0.6049
vn 0.5587 -0.6023 0.5702
vn 0.5608 0.6005 0.5700
vn 0.2985 0.3316 0.8950
vn 0.6012 0.5525 -0.5773
vn 0.3071 0.3126 -0.8988
vn 0.5951 0.5847 0.5513
vn -0.5413 0.6125 0.5760
vn 0.6202 0.5209 -0.5864
vn -0.5620 0.5951 -0.5744
usemtl default
s 1
f 1/1/1 2/2/2 3/3/3 4/4/4
f 4/5/4 5/6/5 1/7/1
f 4/8/4 3/9/3 6/10/6 5/11/5
f 5/6/5 7/12/7 8/13/8 1/7/1
f 5/14/5 6/15/6 9/16/9 10/17/10
f 10/18/10 11/19/11 12/20/12 13/21/13
f 10/18/10 13/21/13 7/12/7 5/6/5
f 11/19/11 14/22/14 15/23/15 12/20/12
f 14/24/14 16/25/16 17/26/17 8/27/8
f 8/13/8 18/28/18 15/23/15 14/22/14
f 8/29/8 17/30/17 2/31/2 1/32/1
f 7/12/7 18/28/18 8/13/8
f 7/33/7 19/34/19 20/35/20 18/36/18
f 18/37/18 20/38/20 21/39/21 15/40/15
f 13/41/13 22/42/22 19/43/19 7/44/7
f 2/45/2 6/46/6 3/47/3
f 2/45/2 17/48/17 19/49/19 6/46/6
f 6/46/6 19/49/19 22/50/22 9/51/9
f 9/52/9 23/53/23 11/54/11 10/55/10
f 23/56/23 16/25/16 14/24/14 11/57/11
f 16/58/16 21/59/21 20/60/20 17/48/17
f 17/48/17 20/60/20 19/49/19
f 21/39/21 24/61/24 12/62/12 15/40/15
f 24/63/24 21/59/21 16/58/16 23/64/23
f 24/65/24 22/66/22 13/67/13 12/68/12
f 22/50/22 24/63/24 23/64/23 9/51/9
f 25/69/25 26/70/26 27/71/27 28/72/28
f 28/73/28 29/74/29 30/75/30 25/76/25
f 28/77/28 27/78/27 31/79/31 29/80/29
f 29/80/29 31/79/31 32/81/32 33/82/33
f 33/83/33 34/84/34 35/85/35 29/74/29
f 33/86/33 32/87/32 36/88/36 34/89/34
f 35/85/35 37/90/37 38/91/38 30/75/30
f 35/85/35 30/75/30 29/74/29
f 37/92/37 39/93/39 40/94/40 38/95/38
f 38/96/38 40/97/40 41/98/41 30/99/30
f 30/99/30 41/98/41 26/100/26 25/101/25
f 26/102/26 41/103/41 31/104/31 27/105/27
f 31/104/31 42/106/42 36/107/36 32/108/32
f 31/104/31 41/103/41 42/106/42
f 36/109/36 42/110/42 35/111/35 34/112/34
f 42/113/42 39/114/39 37/115/37 35/116/35
f 41/103/41 40/117/40 39/118/39 42/106/42
f 43/119/43 44/120/44 45/121/45 46/122/46
f 43/123/43 47/124/47 48/125/48 49/126/49
f 49/127/49 50/128/50 44/120/44 43/119/43
f 49/129/49 48/130/48 51/131/51 50/132/50
f 50/133/50 51/134/51 52/135/52 53/136/53
f 53/137/53 54/138/54 44/120/44 50/128/50
f 53/139/53 52/140/52 55/141/55 56/142/56
f 56/143/56 57/144/57 54/138/54 53/137/53
f 56/145/56 55/146/55 58/147/58 57/148/57
f 57/149/57 58/150/58 59/151/59 60/152/60
f 60/153/60 45/121/45 54/138/54 57/144/57
f 60/154/60 59/155/59 61/156/61 46/157/46
f 46/122/46 45/121/45 60/153/60
f 46/158/46 61/159/61 47/160/47 43/161/43
f 54/162/54 62/163/62 63/164/63 44/165/44
f 47/166/47 63/167/63 51/168/51 48/169/48
f 51/168/51 63/167/63 62/170/62 52/171/52
f 52/171/52 62/170/62 58/172/58 55/173/55
f 58/172/58 62/170/62 64/174/64 59/175/59
f 59/175/59 64/174/64 61/176/61
f 61/176/61 64/174/64 63/167/63 47/166/47
f 63/177/63 64/178/64 45/179/45 44/180/44
f 64/181/64 62/182/62 54/183/54 45/184/45
f 65/185/65 66/186/66 67/187/67 68/188/68
f 68/189/68 69/190/69 70/191/70 65/192/65
f 68/193/68 67/194/67 71/195/71 69/196/69
f 69/197/69 71/198/71 72/199/72 70/200/70
f 70/191/70 73/201/73 74/202/74 65/192/65
f 70/203/70 72/204/72 75/205/75 73/206/73
f 73/207/73 75/208/75 76/209/76 74/210/74
f 74/211/74 76/212/76 66/213/66 65/214/65
f 66/213/66 72/215/72 71/216/71 67/217/67
f 66/213/66 76/218/76 75/219/75 72/215/72
