# Blender v2.78 (sub 0) OBJ File: 'Title.blend'
# www.blender.org
mtllib Title.mtl
o text2_default
v -3.407772 -0.602160 0.060332
v -2.564451 -0.587961 0.081876
v -2.704571 -0.267525 0.030923
v -3.080384 -0.264027 0.112266
v -3.123247 0.695120 0.080541
v -3.454060 0.972332 0.038510
v -2.065676 0.215642 0.076701
v -2.476416 0.203879 0.077785
v -2.550635 0.960166 0.063009
v -2.738104 0.617463 0.075163
v -3.421723 1.001080 -0.286100
v -3.422233 -0.593266 -0.282527
v -2.728306 -0.258800 -0.293936
v -3.091369 -0.262320 -0.276685
v -3.072938 0.642967 -0.291345
v -2.523437 -0.560309 -0.262903
v -2.064016 0.182918 -0.284158
v -2.524691 0.933281 -0.281224
v -2.679897 0.660187 -0.267370
v -2.461727 0.214033 -0.238266
v 0.789280 -0.613311 0.061319
v 0.747941 -0.613134 -0.285030
v 1.135655 -0.587171 -0.313417
v 1.116222 -0.575707 0.073535
v 1.113609 0.996498 0.075640
v 0.741575 0.992447 0.068577
v 1.115751 1.009058 -0.320878
v 0.736704 0.986087 -0.285088
v 2.556254 -0.652749 0.070354
v 2.526807 -0.626152 -0.273455
v 2.920020 -0.641482 -0.262563
v 2.858450 -0.674039 0.052769
v 2.884677 -0.284871 0.055063
v 2.526360 -0.296287 0.050892
v 2.925953 -0.262424 -0.267445
v 2.499886 -0.287425 -0.280160
v 2.604585 -0.254176 0.068757
v 2.535245 0.965754 0.076007
v 2.487918 0.988196 -0.281288
v 2.554633 -0.222182 -0.299509
v 2.832002 -0.241334 -0.274819
v 2.805546 -0.244634 0.060050
v 2.897620 1.017995 0.067703
v 2.884718 0.984387 -0.248692
v 1.599738 -0.597412 0.067478
v 1.623491 -0.611574 -0.315325
v 1.924751 -0.578407 -0.286378
v 1.939847 -0.649551 0.046628
v 1.942959 0.690883 0.089163
v 1.587588 0.664817 0.057646
v 1.945837 0.682963 -0.273247
v 2.421168 0.666865 -0.300673
v 2.434528 0.652621 0.053735
v 2.416758 0.973690 0.052064
v 2.406026 0.984215 -0.265083
v 1.097613 0.972730 0.052789
v 1.126076 0.962944 -0.306053
v 1.139023 0.643399 -0.278077
v 1.128315 0.722201 0.075444
v 1.569492 0.664189 -0.282945
v -0.905793 -0.036824 0.074784
v -0.887193 -0.050334 -0.256039
v -0.455885 -0.049641 -0.291702
v -0.431589 -0.023491 0.085536
v -0.118590 0.297101 0.073957
v -0.896177 0.280772 0.046542
v -0.494023 -0.141621 -0.267093
v -0.493690 -0.172422 0.050603
v -0.831748 -0.273776 0.066449
v -0.805670 -0.642969 0.076370
v -0.156333 -0.397784 0.074877
v -1.202010 -0.055272 0.055782
v -1.545660 -0.230985 0.044908
v -1.228524 0.441330 0.073667
v -1.494846 0.610615 0.066534
v -0.830791 0.717463 0.082323
v -0.785611 1.036021 0.094266
v -0.457366 0.365677 0.050438
v -0.091929 0.481638 0.057637
v -0.427812 0.423505 -0.278756
v -0.047652 0.460471 -0.276311
v -0.143624 -0.379153 -0.282469
v -0.173092 0.261754 -0.322168
v -0.931675 0.282753 -0.287669
v -0.813108 -0.324134 -0.290698
v -1.192537 -0.069231 -0.280405
v -1.176628 0.465407 -0.248217
v -0.825247 0.644999 -0.308471
v -0.763627 1.028148 -0.277560
v -1.515424 0.664657 -0.295327
v -1.533490 -0.256332 -0.258042
v -0.830853 -0.665525 -0.310861
v -1.981391 -0.616187 0.103526
v -1.998514 -0.612226 -0.277182
v -1.652529 -0.618799 -0.252356
v -1.634833 -0.610973 0.076011
v -1.644438 1.007973 0.053425
v -1.970307 0.982927 0.057712
v -1.649493 0.980519 -0.276275
v -2.030730 0.983961 -0.290638
vt 0.2406 0.5670
vt 0.0920 0.5689
vt 0.1151 0.5125
vt 0.1812 0.5102
vt 0.1838 0.3437
vt 0.2406 0.2938
vt 0.0000 0.4321
vt 0.0724 0.4321
vt 0.0816 0.3006
vt 0.1163 0.3591
vt 0.1331 0.5740
vt 0.1901 0.5689
vt 0.1901 0.8454
vt 0.1297 0.8470
vt 0.9322 0.3581
vt 0.9990 0.3691
vt 0.9976 0.4255
vt 0.9336 0.4255
vt 0.9283 0.9370
vt 0.8599 0.9346
vt 0.8624 0.7776
vt 0.9283 0.7706
vt 0.9892 0.7706
vt 0.9892 0.9266
vt 0.9283 0.9207
vt 0.9289 0.7744
vt 0.7381 0.8303
vt 0.7340 0.7012
vt 0.7977 0.6962
vt 0.7989 0.8358
vt 0.7381 0.5713
vt 0.7989 0.5673
vt 0.1901 0.9679
vt 0.1936 0.8130
vt 0.2509 0.8087
vt 0.2509 0.9652
vt 0.7340 0.5670
vt 0.6726 0.5049
vt 0.6758 0.3479
vt 0.7340 0.2905
vt 0.6118 0.3486
vt 0.5757 0.2963
vt 0.9948 0.6458
vt 0.9948 0.7142
vt 0.9339 0.7075
vt 0.9288 0.6413
vt 0.6033 0.5079
vt 0.5760 0.5553
vt 0.3906 0.7845
vt 0.3822 0.8614
vt 0.3266 0.8616
vt 0.3303 0.7902
vt 0.5649 0.4305
vt 0.4948 0.4252
vt 0.3906 0.9440
vt 0.3333 0.9438
vt 0.9386 0.2933
vt 1.0000 0.2905
vt 1.0000 0.3581
vt 0.9322 0.3499
vt 0.6921 0.5729
vt 0.6946 0.8455
vt 0.6291 0.8455
vt 0.6344 0.5670
vt 0.7356 0.2922
vt 0.8039 0.2905
vt 0.8039 0.5673
vt 0.7340 0.5649
vt 0.9340 0.2218
vt 0.9340 0.2905
vt 0.8671 0.2839
vt 0.8684 0.2226
vt 0.0000 0.5689
vt 0.0623 0.5700
vt 0.0623 0.8473
vt 0.0011 0.8473
vt 0.7347 0.2805
vt 0.7363 0.0032
vt 0.8031 0.0000
vt 0.8031 0.2768
vt 0.7989 0.8553
vt 0.8593 0.8487
vt 0.8593 0.9168
vt 0.8035 0.9075
vt 0.9886 0.4954
vt 0.9954 0.5627
vt 0.9322 0.5627
vt 0.9355 0.5007
vt 0.8559 0.9880
vt 0.8001 0.9826
vt 0.7989 0.9168
vt 0.8559 0.9205
vt 0.0012 0.8529
vt 0.0582 0.8473
vt 0.0582 0.9213
vt 0.0000 0.9151
vt 0.9305 0.9294
vt 0.9889 0.9266
vt 0.9889 0.9854
vt 0.9283 0.9912
vt 0.9356 0.5686
vt 0.9954 0.5673
vt 0.9954 0.6413
vt 0.9288 0.6365
vt 0.8671 0.5050
vt 0.8691 0.2935
vt 0.9322 0.2905
vt 0.9322 0.5004
vt 0.8736 1.0000
vt 0.8599 0.9370
vt 0.9088 0.9375
vt 0.9088 0.9957
vt 0.8900 0.2176
vt 0.8612 0.0000
vt 0.9255 0.0055
vt 0.9255 0.2173
vt 0.9953 0.4954
vt 0.9395 0.4941
vt 0.9322 0.4255
vt 0.9953 0.4322
vt 0.3826 0.5748
vt 0.3965 0.7845
vt 0.3266 0.7845
vt 0.3337 0.5719
vt 0.9255 0.2187
vt 0.9289 0.0061
vt 0.9846 0.0000
vt 0.9846 0.2190
vt 0.1871 0.9263
vt 0.1871 0.9929
vt 0.1337 0.9910
vt 0.1279 0.9335
vt 0.4074 0.2905
vt 0.4082 0.5228
vt 0.3455 0.5185
vt 0.3475 0.2996
vt 0.4603 0.8045
vt 0.4013 0.7940
vt 0.3965 0.5753
vt 0.4603 0.5719
vt 0.4948 0.8449
vt 0.5585 0.8490
vt 0.5585 0.9314
vt 0.4960 0.9301
vt 0.4948 0.5162
vt 0.4917 0.5719
vt 0.5513 0.9314
vt 0.5513 0.9928
vt 0.4952 0.9888
vt 0.4948 0.9338
vt 0.2593 0.5719
vt 0.8671 0.5191
vt 0.8112 0.5173
vt 0.8039 0.2954
vt 0.8671 0.2905
vt 0.6817 0.9276
vt 0.6856 0.9897
vt 0.6291 0.9897
vt 0.6374 0.9274
vt 0.2647 0.5284
vt 0.1901 0.9263
vt 0.1279 0.9225
vt 0.1300 0.8478
vt 0.1901 0.8470
vt 0.3253 0.7931
vt 0.2652 0.7931
vt 0.2593 0.5719
vt 0.3266 0.5742
vt 0.6516 0.0000
vt 0.6575 0.2213
vt 0.5911 0.2235
vt 0.5985 0.0049
vt 0.5092 0.2744
vt 0.5074 0.2194
vt 0.7347 0.2744
vt 0.7334 0.2189
vt 0.6365 0.8455
vt 0.6945 0.8524
vt 0.6957 0.9274
vt 0.6291 0.9274
vt 0.4543 0.1118
vt 0.5051 0.1713
vt 0.3687 0.1587
vt 0.3711 0.1036
vt 0.4861 0.5719
vt 0.4861 0.6376
vt 0.4696 0.6346
vt 0.4603 0.5800
vt 0.4452 0.0854
vt 0.3871 0.0635
vt 0.3965 0.0000
vt 0.5074 0.0506
vt 0.3193 0.0967
vt 0.2611 0.0620
vt 0.3082 0.1822
vt 0.2593 0.2081
vt 0.3746 0.2349
vt 0.3785 0.2905
vt 0.4447 0.1789
vt 0.5074 0.2036
vt 0.9215 0.6376
vt 0.8634 0.6334
vt 0.8623 0.5673
vt 0.9213 0.5735
vt 0.7989 0.9563
vt 0.7359 0.9529
vt 0.7293 0.8418
vt 0.7989 0.8358
vt 0.3965 0.8045
vt 0.4667 0.8110
vt 0.4667 0.9424
vt 0.4076 0.9390
vt 0.9259 0.5603
vt 0.8671 0.5657
vt 0.8677 0.5077
vt 0.9259 0.5050
vt 0.1461 0.1064
vt 0.1551 0.1640
vt 0.0214 0.1630
vt 0.0701 0.1080
vt 0.0140 0.0520
vt 0.0765 0.0919
vt 0.0664 0.9434
vt 0.0623 0.8867
vt 0.1253 0.8841
vt 0.1224 0.9434
vt 0.0646 0.8229
vt 0.1238 0.8216
vt 0.6209 0.8451
vt 0.6209 0.9379
vt 0.5639 0.9371
vt 0.5619 0.8509
vt 0.8719 0.7628
vt 0.8599 0.7011
vt 0.9288 0.7001
vt 0.9288 0.7706
vt 0.1297 0.5689
vt 0.1279 0.6885
vt 0.0623 0.6915
vt 0.0707 0.5757
vt 0.1281 0.2938
vt 0.0000 0.1978
vt 0.0668 0.1901
vt 0.1376 0.2272
vt 0.1297 0.8216
vt 0.0660 0.8177
vt 0.2593 0.2283
vt 0.1989 0.1948
vt 0.3227 0.7931
vt 0.3227 0.9529
vt 0.2692 0.9507
vt 0.2593 0.8049
vt 0.2593 0.0685
vt 0.1998 0.1021
vt 0.2441 0.5689
vt 0.2581 0.6878
vt 0.1901 0.6948
vt 0.1906 0.5689
vt 0.1341 0.0000
vt 0.1321 0.0592
vt 0.2576 0.8087
vt 0.1946 0.8087
vt 0.0612 0.9213
vt 0.0612 0.9874
vt 0.0006 0.9804
vt 0.0000 0.9234
vt 0.8599 0.5680
vt 0.8599 0.8487
vt 0.8025 0.8447
vt 0.7989 0.5673
vt 0.8034 0.0005
vt 0.8612 0.0000
vt 0.8612 0.2774
vt 0.8031 0.2813
vt 0.9955 0.2881
vt 0.9373 0.2878
vt 0.9340 0.2218
vt 0.9955 0.2315
vt 0.5675 0.5677
vt 0.6291 0.5670
vt 0.6291 0.8438
vt 0.5619 0.8451
vt 0.5010 0.8438
vt 0.4948 0.5670
vt 0.5619 0.5675
vt 0.5619 0.8449
vn -0.5771 -0.6132 0.5393
vn 0.3594 -0.6994 0.6178
vn -0.3028 0.4805 0.8231
vn 0.2605 0.2795 0.9241
vn 0.1913 -0.2139 0.9579
vn -0.6278 0.5613 0.5392
vn 0.7803 0.0361 0.6243
vn -0.5831 0.0038 0.8124
vn 0.3707 0.7068 0.6025
vn -0.3245 -0.4949 0.8060
vn -0.5294 0.6182 -0.5810
vn -0.5632 -0.5675 -0.6005
vn -0.2669 0.4628 -0.8453
vn 0.3121 0.2925 -0.9039
vn 0.3160 -0.3215 -0.8926
vn 0.4248 -0.6729 -0.6056
vn 0.7921 -0.0258 -0.6098
vn 0.4078 0.6612 -0.6296
vn -0.2865 -0.4422 -0.8499
vn -0.5807 -0.0234 -0.8137
vn -0.5214 -0.6283 0.5773
vn -0.5998 -0.5976 -0.5321
vn 0.5871 -0.5489 -0.5950
vn 0.5855 -0.5415 0.6033
vn 0.5553 0.5777 0.5982
vn -0.5835 0.5565 0.5914
vn 0.5463 0.5947 -0.5898
vn -0.6281 0.5701 -0.5296
vn -0.5281 -0.5971 0.6038
vn -0.5875 -0.5568 -0.5872
vn 0.6222 -0.5689 -0.5377
vn 0.4913 -0.6501 0.5796
vn 0.5404 0.5679 0.6208
vn -0.5887 0.5427 0.5990
vn 0.6191 0.5939 -0.5137
vn -0.6291 0.5405 -0.5586
vn -0.5123 -0.6180 0.5963
vn -0.5686 0.5311 0.6281
vn -0.6189 0.5499 -0.5608
vn -0.5875 -0.5447 -0.5984
vn 0.5891 -0.5817 -0.5608
vn 0.5447 -0.6183 0.5665
vn 0.5748 0.5927 0.5641
vn 0.6138 0.5773 -0.5383
vn -0.6046 -0.5442 0.5816
vn -0.5470 -0.5743 -0.6090
vn 0.5882 -0.5388 -0.6030
vn 0.5473 -0.6522 0.5244
vn 0.2754 -0.2607 0.9253
vn -0.3238 -0.2664 0.9078
vn 0.3100 -0.3060 -0.9001
vn 0.5506 -0.5413 -0.6354
vn 0.6019 -0.5904 0.5376
vn 0.5868 0.5897 0.5548
vn 0.5436 0.6222 -0.5633
vn -0.6191 0.5766 0.5331
vn -0.5780 0.5355 -0.6157
vn -0.5411 -0.6627 -0.5176
vn -0.5733 -0.4935 0.6541
vn -0.2940 -0.3408 -0.8929
vn -0.5712 -0.5538 0.6058
vn -0.5652 -0.6414 -0.5187
vn -0.2973 -0.2647 -0.9174
vn -0.2329 -0.1685 0.9578
vn 0.5935 0.5831 0.5547
vn -0.5863 0.6020 0.5421
vn -0.4923 0.4364 -0.7531
vn -0.4409 0.4350 0.7851
vn 0.0452 0.6085 0.7922
vn -0.0450 -0.7567 0.6522
vn 0.6540 -0.4703 0.5926
vn 0.4721 0.2600 0.8423
vn -0.7058 -0.3624 0.6086
vn 0.4337 -0.2513 0.8653
vn -0.6816 0.3824 0.6238
vn -0.0138 -0.4768 0.8789
vn 0.0508 0.7671 0.6394
vn -0.1763 -0.8010 0.5721
vn 0.8155 -0.1750 0.5517
vn -0.1332 -0.7350 -0.6648
vn 0.8286 -0.1915 -0.5261
vn 0.6644 -0.4404 -0.6038
vn 0.5364 0.5437 -0.6454
vn -0.6167 0.5340 -0.5784
vn 0.0235 0.5343 -0.8449
vn 0.4722 0.2913 -0.8319
vn 0.5233 -0.3435 -0.7798
vn -0.0279 -0.5460 -0.8373
vn 0.0953 0.8075 -0.5820
vn -0.6629 0.4358 -0.6087
vn -0.7053 -0.4167 -0.5734
vn -0.0738 -0.7712 -0.6323
vn -0.5370 -0.5575 0.6330
vn -0.5883 -0.5810 -0.5623
vn 0.5743 -0.5987 -0.5582
vn 0.6021 -0.5694 0.5596
vn 0.5844 0.6117 0.5331
vn -0.5334 0.5972 0.5990
vn 0.5831 0.5594 -0.5891
vn -0.6107 0.5417 -0.5774
usemtl default
s 1
f 1/1/1 2/2/2 3/3/3 4/4/4
f 1/1/1 4/4/4 5/5/5 6/6/6
f 2/2/2 7/7/7 8/8/8 3/3/3
f 7/7/7 9/9/9 10/10/10 8/8/8
f 9/9/9 6/6/6 5/5/5 10/10/10
f 6/11/6 11/12/11 12/13/12 1/14/1
f 4/15/4 3/16/3 13/17/13 14/18/14
f 4/19/4 14/20/14 15/21/15 5/22/5
f 12/23/12 16/24/16 2/25/2 1/26/1
f 16/27/16 17/28/17 7/29/7 2/30/2
f 17/28/17 18/31/18 9/32/9 7/29/7
f 18/33/18 11/34/11 6/35/6 9/36/9
f 11/37/11 15/38/15 14/39/14 12/40/12
f 14/39/14 13/41/13 16/42/16 12/40/12
f 15/43/15 19/44/19 10/45/10 5/46/5
f 19/47/19 15/38/15 11/37/11 18/48/18
f 19/49/19 20/50/20 8/51/8 10/52/10
f 20/53/20 19/47/19 18/48/18 17/54/17
f 20/50/20 13/55/13 3/56/3 8/51/8
f 13/41/13 20/53/20 17/54/17 16/42/16
f 21/57/21 22/58/22 23/59/23 24/60/24
f 24/61/24 25/62/25 26/63/26 21/64/21
f 24/65/24 23/66/23 27/67/27 25/68/25
f 25/69/25 27/70/27 28/71/28 26/72/26
f 26/73/26 28/74/28 22/75/22 21/76/21
f 22/77/22 28/78/28 27/79/27 23/80/23
f 29/81/29 30/82/30 31/83/31 32/84/32
f 32/85/32 33/86/33 34/87/34 29/88/29
f 32/89/32 31/90/31 35/91/35 33/92/33
f 33/93/33 35/94/35 36/95/36 34/96/34
f 34/97/34 36/98/36 30/99/30 29/100/29
f 30/101/30 36/102/36 35/103/35 31/104/31
f 37/105/37 38/106/38 39/107/39 40/108/40
f 37/109/37 40/110/40 41/111/41 42/112/42
f 42/113/42 43/114/43 38/115/38 37/116/37
f 43/117/43 44/118/44 39/119/39 38/120/38
f 40/121/40 39/122/39 44/123/44 41/124/41
f 41/125/41 44/126/44 43/127/43 42/128/42
f 45/129/45 46/130/46 47/131/47 48/132/48
f 48/133/48 49/134/49 50/135/50 45/136/45
f 48/137/48 47/138/47 51/139/51 49/140/49
f 49/141/49 51/142/51 52/143/52 53/144/53
f 53/145/53 54/146/54 49/134/49
f 53/147/53 52/148/52 55/149/55 54/150/54
f 54/146/54 56/151/56 50/135/50 49/134/49
f 54/152/54 55/153/55 57/154/57 56/155/56
f 56/156/56 57/157/57 58/158/58 59/159/59
f 59/160/59 50/135/50 56/151/56
f 59/161/59 58/162/58 60/163/60 50/164/50
f 50/165/50 60/166/60 46/167/46 45/168/45
f 46/169/46 60/170/60 51/171/51 47/172/47
f 51/171/51 55/173/55 52/174/52
f 51/171/51 60/170/60 57/175/57 55/173/55
f 57/175/57 60/170/60 58/176/58
f 61/177/61 62/178/62 63/179/63 64/180/64
f 64/181/64 65/182/65 66/183/66 61/184/61
f 64/185/64 63/186/63 67/187/67 68/188/68
f 68/189/68 69/190/69 70/191/70 71/192/71
f 68/189/68 71/192/71 65/182/65 64/181/64
f 69/190/69 72/193/72 73/194/73 70/191/70
f 72/193/72 74/195/74 75/196/75 73/194/73
f 74/195/74 76/197/76 77/198/77 75/196/75
f 76/197/76 78/199/78 79/200/79 77/198/77
f 78/201/78 80/202/80 81/203/81 79/204/79
f 71/205/71 82/206/82 83/207/83 65/208/65
f 65/209/65 83/210/83 84/211/84 66/212/66
f 66/213/66 84/214/84 62/215/62 61/216/61
f 62/217/62 84/218/84 83/219/83 63/220/63
f 63/220/63 83/219/83 82/221/82 67/222/67
f 67/223/67 85/224/85 69/225/69 68/226/68
f 85/224/85 86/227/86 72/228/72 69/225/69
f 86/229/86 87/230/87 74/231/74 72/232/72
f 87/233/87 88/234/88 76/235/76 74/236/74
f 88/234/88 80/202/80 78/201/78 76/235/76
f 81/237/81 89/238/89 77/239/77 79/240/79
f 89/241/89 81/242/81 80/243/80 88/244/88
f 89/238/89 90/245/90 75/246/75 77/239/77
f 90/247/90 89/241/89 88/244/88 87/248/87
f 90/249/90 91/250/91 73/251/73 75/252/75
f 91/253/91 90/247/90 87/248/87 86/254/86
f 91/255/91 92/256/92 70/257/70 73/258/73
f 92/259/92 91/253/91 86/254/86 85/260/85
f 92/256/92 82/261/82 71/262/71 70/257/70
f 82/221/82 92/259/92 85/260/85 67/222/67
f 93/263/93 94/264/94 95/265/95 96/266/96
f 96/267/96 97/268/97 98/269/98 93/270/93
f 96/271/96 95/272/95 99/273/99 97/274/97
f 97/275/97 99/276/99 100/277/100 98/278/98
f 98/279/98 100/280/100 94/281/94 93/282/93
f 94/283/94 100/284/100 99/285/99 95/286/95
